<svg width="56" height="55" viewBox="0 0 56 55" fill="none" xmlns="http://www.w3.org/2000/svg">
<path d="M51.3438 9.57184H4.47559V45.1847H51.3438V9.57184Z" stroke="#4F387E" stroke-width="1.51152" stroke-linejoin="round"/>
<path d="M48.0782 29.9661V40.0527C48.0782 40.9818 47.3279 41.6896 46.4453 41.6896H9.41853C8.49176 41.6896 7.78564 40.9375 7.78564 40.0527V14.615C7.78564 13.6859 8.53589 12.9781 9.41853 12.9781H32.8526" stroke="#4F387E" stroke-width="1.51152" stroke-linecap="round" stroke-linejoin="round"/>
<path d="M40.9729 11.9156L42.7381 14.9239L45.8715 13.5082L45.5185 16.9589L48.9166 17.6667L46.6218 20.2769L48.9166 22.8428L45.5185 23.5949L45.8715 27.0455L42.7381 25.6299L40.9729 28.6382L39.2517 25.6299L36.0742 27.0455L36.4273 23.5949L33.0732 22.8428L35.3681 20.2769L33.0732 17.6667L36.4273 16.9589L36.0742 13.5082L39.2517 14.9239L40.9729 11.9156Z" stroke="#4F387E" stroke-width="1.51152" stroke-linejoin="round"/>
<path d="M12.0225 19.3041H27.9541" stroke="#4F387E" stroke-width="1.51152" stroke-linecap="round" stroke-linejoin="round"/>
<path d="M12.0225 24.2593H27.9541" stroke="#4F387E" stroke-width="1.51152" stroke-linecap="round" stroke-linejoin="round"/>
<path d="M12.0225 29.8336H33.0734" stroke="#4F387E" stroke-width="1.51152" stroke-linecap="round" stroke-linejoin="round"/>
<path d="M12.0225 35.3629H42.1646" stroke="#4F387E" stroke-width="1.51152" stroke-linecap="round" stroke-linejoin="round"/>
</svg>
