<svg width="50" height="49" viewBox="0 0 50 49" fill="none" xmlns="http://www.w3.org/2000/svg">
<path d="M46.5682 9.30828C45.8567 8.26387 44.7601 7.31737 43.9506 6.34477C44.1269 5.70507 44.7927 5.16329 45.217 4.61498C46.0329 3.56404 46.9142 2.48047 47.7301 1.37079C47.8084 1.26635 48.0238 1.24024 48.0369 1.16844C48.1217 0.789838 47.4625 0.659282 47.717 0L46.3724 0.835524L42.1621 5.01968C41.9141 5.01968 41.2548 4.37345 41.0132 4.2429C33.7546 0.339432 24.5051 -0.261101 17.0702 3.73375C15.3013 4.68678 12.1942 6.99753 11.4174 8.89052C11.3521 9.05371 10.9605 10.0067 11.45 9.86312C13.0036 9.00801 14.1002 7.51973 15.5102 6.48185C21.398 2.16062 30.2885 1.48175 37.0967 4.11888C38.3892 4.6215 39.5902 5.35259 40.8305 5.95312L40.7522 6.42311C37.1033 9.92187 33.8199 13.7796 30.8107 17.7745C27.9778 21.5344 25.1644 25.4052 22.4489 29.2369C21.2022 30.9928 19.9228 33.2513 18.6825 34.8701C18.4345 35.19 17.0245 36.6064 16.7112 36.3388C16.7439 35.9994 16.4697 35.7709 16.4044 35.4641C16.1172 34.1195 15.9214 32.7226 15.6277 31.3844C14.7269 27.2786 14.0415 23.0683 12.6119 19.1257H11.8678C11.078 20.5813 11.672 21.4234 11.8286 22.8072C12.3182 27.0828 12.7621 31.528 13.7673 35.7513C14.3939 38.3819 16.0193 39.9551 18.7217 38.4342C21.6656 36.7827 24.714 29.7199 27.2075 27.0567C30.1318 23.7733 32.4622 19.9873 35.1972 16.5277L42.4689 7.82C42.978 7.40224 44.042 8.71427 44.4337 9.16467C47.5995 12.8723 48.6178 18.0748 48.3633 22.9574C47.1361 46.3194 11.6524 56.6982 2.75534 32.2395C-1.58547 20.3007 4.08044 8.53803 14.7203 2.71546C15.0793 2.51963 15.8039 2.4413 16.2217 2.09535C16.5023 1.86035 17.1225 1.02483 16.3196 1.09663C12.514 1.43606 8.06223 5.21551 5.77106 8.08762C-2.24476 18.1205 -2.04241 33.0751 7.20712 42.2397C17.142 52.0898 33.8395 48.6106 42.7235 39.2436C49.9495 31.6194 52.8085 18.4664 46.5682 9.30175V9.30828Z" fill="#4F387E"/>
</svg>
