<svg width="46" height="59" viewBox="0 0 46 59" fill="none" xmlns="http://www.w3.org/2000/svg">
<g clip-path="url(#clip0_494_12940)">
<path d="M41.8613 43.4575V5.75H2.2749V53.393H41.8613V51.6898" stroke="#4F387E" stroke-width="1.51152" stroke-linejoin="round"/>
<path d="M25.5105 37.5409L20.1558 40.3323C19.6299 40.6162 19.0562 40.7581 18.4825 40.7581C17.6219 40.7581 16.7613 40.4742 16.092 39.8592C14.9923 38.8656 14.6099 37.3043 15.1358 35.9323L20.0124 23.4893L12.1716 27.8893C11.072 28.5043 9.68547 28.5043 8.58585 27.8893C7.48623 27.2742 6.81689 26.0914 6.81689 24.814V13.6011C6.81689 11.6613 8.44242 10.0527 10.4026 10.0527C12.3628 10.0527 13.9883 11.6613 13.9883 13.6011V18.7581L25.2236 12.4656C26.5623 11.7086 28.1878 11.8979 29.3352 12.8914C30.4827 13.885 30.8652 15.4463 30.3392 16.8656L25.3192 29.6871L33.0166 25.6656C34.7855 24.7667 36.937 25.4291 37.8454 27.1323C38.7537 28.8828 38.0844 31.0119 36.3633 31.9108L32.8732 33.756" stroke="#4F387E" stroke-width="1.51152" stroke-linejoin="round"/>
<path d="M43.8024 45.3503L29.2656 30.9648L24.0932 36.0834L38.63 50.4688L43.8024 45.3503Z" stroke="#4F387E" stroke-width="1.51152" stroke-linejoin="round"/>
<path d="M40.9685 42.6202L31.8745 33.6209L26.7021 38.7395L35.7961 47.7387L40.9685 42.6202Z" stroke="#4F387E" stroke-width="1.51152" stroke-linejoin="round"/>
<path d="M46.0023 47.55L43.7373 45.3086L38.5649 50.4271L40.8299 52.6686L46.0023 47.55Z" stroke="#4F387E" stroke-width="1.51152" stroke-linejoin="round"/>
<path d="M22.2119 29.168L24.1243 36.1701L29.2877 31.0131L22.2119 29.168Z" stroke="#4F387E" stroke-width="1.51152" stroke-linejoin="round"/>
<path d="M9.87671 45.302C11.5666 45.302 12.9365 43.9463 12.9365 42.2741C12.9365 40.6018 11.5666 39.2461 9.87671 39.2461C8.18682 39.2461 6.81689 40.6018 6.81689 42.2741C6.81689 43.9463 8.18682 45.302 9.87671 45.302Z" stroke="#4F387E" stroke-width="1.51152" stroke-linejoin="round"/>
<path d="M35.885 21.8821C37.5749 21.8821 38.9448 20.5264 38.9448 18.8541C38.9448 17.1818 37.5749 15.8262 35.885 15.8262C34.1951 15.8262 32.8252 17.1818 32.8252 18.8541C32.8252 20.5264 34.1951 21.8821 35.885 21.8821Z" stroke="#4F387E" stroke-width="1.51152" stroke-linejoin="round"/>
<path d="M22.5944 51.0252C24.6539 51.0252 26.3235 49.373 26.3235 47.3349C26.3235 45.2967 24.6539 43.6445 22.5944 43.6445C20.5348 43.6445 18.8652 45.2967 18.8652 47.3349C18.8652 49.373 20.5348 51.0252 22.5944 51.0252Z" stroke="#4F387E" stroke-width="1.51152" stroke-linejoin="round"/>
</g>
<defs>
<clipPath id="clip0_494_12940">
<rect width="46" height="59" fill="white"/>
</clipPath>
</defs>
</svg>
