<svg width="132" height="10" viewBox="0 0 132 10" fill="none" xmlns="http://www.w3.org/2000/svg">
<path d="M130.833 5.15479C130.473 4.98434 129.585 4.80575 129.153 4.69458C127.183 4.19864 124.971 3.90994 122.969 3.59435C112.841 1.99072 102.654 0.86261 92.5053 0.408644C79.5469 -0.168061 66.4723 -0.030783 53.544 0.533716C39.1731 1.15631 24.7355 2.61372 10.5181 5.40862C7.65533 5.96953 4.19194 6.4451 1.4524 7.57746C1.27071 7.65389 0.809929 7.78047 0.82567 8.14636C0.833318 8.39755 0.840529 8.63437 1.03184 8.7229C1.26058 8.83202 2.38438 9.0262 2.68405 9.04734C4.41375 9.19744 5.78057 8.60979 7.41245 8.41763C21.7007 6.74135 35.9816 4.97189 50.3491 4.23447C76.9021 2.86518 103.04 4.33618 129.568 6.36471C129.821 6.38701 130.082 6.32296 130.34 6.34515L130.398 5.8481L131.04 5.62356C131.065 5.37874 130.991 5.22259 130.837 5.14749L130.833 5.15479Z" fill="#D5C2FF"/>
</svg>
