<svg width="62" height="51" viewBox="0 0 62 51" fill="none" xmlns="http://www.w3.org/2000/svg">
<g style="mix-blend-mode:multiply" opacity="0.85">
<path d="M42.9929 48.0867H6.43652V3.8999H29.8185L42.9929 16.8844V48.0867Z" fill="white" stroke="#4F387E" stroke-width="2" stroke-linejoin="round"/>
<path d="M13.9785 20.6871H34.3435" stroke="#4F387E" stroke-width="2" stroke-linecap="round" stroke-linejoin="round"/>
<path d="M13.9785 26.0192H34.3435" stroke="#4F387E" stroke-width="2" stroke-linecap="round" stroke-linejoin="round"/>
<path d="M13.9785 31.9918H26.2478" stroke="#4F387E" stroke-width="2" stroke-linecap="round" stroke-linejoin="round"/>
<path d="M13.9785 37.9645H26.2478" stroke="#4F387E" stroke-width="2" stroke-linecap="round" stroke-linejoin="round"/>
<path d="M52.027 23.6105L46.5869 18.2692L31.2978 33.2806L36.7379 38.6219L52.027 23.6105Z" fill="white" stroke="#4F387E" stroke-width="2" stroke-linejoin="round"/>
<path d="M54.3454 21.2882L48.9053 15.9469L46.523 18.2859L51.9631 23.6272L54.3454 21.2882Z" fill="white" stroke="#4F387E" stroke-width="2" stroke-linejoin="round"/>
<path d="M54.5011 13.0726L57.31 15.8305C58.0567 16.5636 58.0212 17.7157 57.31 18.4139L54.3589 21.3114L48.9188 15.9701L51.87 13.0726C52.6166 12.3395 53.79 12.3744 54.5011 13.0726Z" fill="white" stroke="#4F387E" stroke-width="2" stroke-linejoin="round"/>
<path d="M29.3662 40.5331L36.8082 38.5582L31.3273 33.2262L29.3662 40.5331Z" fill="white" stroke="#4F387E" stroke-width="2" stroke-linejoin="round"/>
<path d="M49.2282 20.9821L34.0928 35.892" stroke="#4F387E" stroke-width="2" stroke-linejoin="round"/>
<path d="M42.9927 16.8844H29.8184V3.8999L42.9927 16.8844Z" fill="white" stroke="#4F387E" stroke-width="2" stroke-linejoin="round"/>
</g>
</svg>
