<svg width="348" height="75" viewBox="0 0 348 75" fill="none" xmlns="http://www.w3.org/2000/svg">
<path d="M334.735 0.969309C336.763 1.99634 337.092 5.10424 337.284 7.12259C337.628 10.6904 336.979 14.352 337.539 17.9154C340.712 19.2996 345.033 18.5048 347.322 21.443V22.2289C345.372 26.2388 340.967 24.0419 337.338 23.8052C338.114 30.5434 335.737 36.853 334.789 43.3501C334.426 45.815 335.668 51.1868 331.887 51.7406C326.186 52.5756 326.313 50.8028 326.49 46.4536C326.75 40.0591 328.371 33.5308 328.651 27.1498C328.705 25.8593 328.7 24.5554 328.602 23.2649C327.914 21.4386 317.444 22.9434 315.868 20.6393C315.308 19.8266 315.195 17.9868 316.079 17.317C317.842 15.9819 326.107 16.9464 328.656 17.1116C329.687 14.3476 327.099 3.89859 328.651 2.33571C329.152 1.83113 330.762 1.74628 331.263 0.964844H334.735V0.969309Z" fill="white"/>
<path d="M82.5391 17.5091L82.7552 20.2643C87.8722 14.7004 98.9018 15.3032 103.164 21.452C105.556 19.9115 107.294 18.0807 110.226 17.2233C120.509 14.2226 131.161 20.0722 131.161 30.3069V51.571L130.507 52.1604H122.262L121.609 51.571V29.521C121.609 26.998 117.239 24.5019 114.508 24.6225C111.321 24.7654 107.284 27.708 107.284 30.6998V51.571L106.631 52.1604H98.3862L97.733 51.571V29.521C97.733 29.3781 96.4218 27.2615 96.191 26.9846C93.9272 24.292 88.1325 23.8678 85.569 26.364C84.8423 27.0739 83.4083 30.6239 83.4083 31.4902V52.1649H74.2939V17.5091H82.5391Z" fill="white"/>
<path d="M43.0382 17.5088V38.5764C43.0382 38.7148 43.8485 40.9029 44.0154 41.2333C46.4708 46.0961 54.4901 46.3417 57.0093 41.4074C57.2352 40.9654 58.2272 38.4156 58.2272 38.1834V17.5088H67.1255L67.7787 18.0982V51.5706L67.1255 52.16H59.0964V48.619L56.0321 51.5438C48.995 55.3349 38.427 52.0797 35.1417 45.3459C34.9109 44.877 33.9238 42.3675 33.9238 42.1219V17.5088H43.0382Z" fill="white"/>
<path d="M233.472 3.83562C234.719 5.1797 233.305 7.11767 233.173 8.64929C232.824 12.7083 233.816 16.7182 234.68 20.6656C235.152 21.2773 235.23 20.8531 235.657 20.7594C238.142 20.2101 244.811 16.4771 244.929 20.4557C245.066 25.1622 238.147 26.6045 234.061 26.9707L237.961 52.3652C236.527 57.0896 231.321 57.0182 229.386 52.2447C226.543 45.2207 228.227 35.9282 224.485 28.9221C222.447 31.2441 211.757 35.2941 211.428 30.3019C211.045 24.4879 224.986 26.3813 224.962 18.8794C224.947 14.6954 223.93 9.77456 224.48 5.48334C224.986 1.54489 231.611 1.82174 233.477 3.83115L233.472 3.83562Z" fill="white"/>
<path d="M194.415 16.8171C198.009 16.317 208.656 19.6928 209.918 23.0373C210.438 24.4127 210.1 26.5784 208.837 27.534C204.948 30.4856 198.152 21.4745 192.195 24.6449C190.569 25.5112 190.8 26.7972 191.728 28.1234C193.869 31.1822 198.81 31.66 202.203 33.1916C205.945 34.8795 210.674 37.4739 210.6 41.707C210.433 51.7541 193.683 59.2381 185.398 51.9774C182.943 49.8251 181.504 45.6946 185.526 44.1898C189.705 42.6269 189.234 46.3376 191.37 47.3468C195.225 49.1731 203.426 46.1233 202.164 41.8991C200.892 37.648 186.498 36.9738 182.889 30.2355C179.746 24.3814 188.595 17.6208 194.424 16.8126L194.415 16.8171Z" fill="white"/>
<path d="M0.5 41.5281H10.0514C10.3559 41.5281 10.4443 44.9173 14.5104 44.5913C16.9412 44.3948 18.7337 42.2738 18.7337 40.1527V6.08643H27.632L28.2851 6.67585V40.5412C28.2851 44.886 25.1128 49.8962 20.7667 51.8341C12.2269 55.6431 0.313396 50.7312 0.504916 41.5236L0.5 41.5281Z" fill="white"/>
<path d="M297.85 21.0497C300.998 20.5317 310.682 11.6054 313.25 16.7272C316.039 22.2911 301.43 23.4074 299.824 27.7656C299.765 30.3868 299.245 33.2535 299.137 35.8033C298.975 39.5274 299.824 45.5021 299.142 48.802C298.454 52.1331 291.579 51.1731 290.916 48.0161C290.302 45.1091 291.088 39.9114 290.901 36.607C290.587 30.9762 287.965 20.9247 290.371 16.0351C292.704 11.2973 298.763 17.6337 297.85 21.0452V21.0497Z" fill="white"/>
<path d="M164.696 18.3888C157.993 16.0489 149.684 16.357 145.053 21.8405V17.5091H137.019L136.366 18.0985V62.9889L137.019 63.5783H145.265L145.918 62.9889V48.6149C149.91 52.5667 155.017 53.7813 160.783 52.8436C179.056 49.8786 182.243 24.5108 164.696 18.3888ZM160.675 44.0914C144.395 50.3072 138.935 25.8683 155.381 24.6983C167.648 23.8276 171.562 39.9342 160.675 44.0914Z" fill="white"/>
<path d="M280.878 43.3324C279.793 42.7653 278.064 43.002 277.868 41.7338C278.123 32.5976 281.683 22.4211 277.45 13.7583C276.718 12.95 275.461 12.3695 274.288 12.4722C273.63 12.5303 270.089 13.9547 269.809 14.3566C269.455 15.4015 271.341 17.3439 270.084 18.1209C269.362 18.5675 265.6 18.2058 264.255 18.3442C242.407 20.5813 237.177 48.5301 263.332 48.539C265.831 48.539 270.408 46.9985 271.906 47.1235C274.872 47.3691 277.087 51.1512 280.873 49.1731C283.559 47.771 283.554 44.739 280.873 43.3324H280.878ZM269.622 40.1441C267.746 41.7918 255.921 40.4031 254.409 38.1034C253.255 36.3486 254.257 33.4952 255.224 31.8073C258.043 26.8864 265.748 25.4486 271.366 25.7746C271.341 30.6016 271.822 35.6564 269.622 40.1441Z" fill="white"/>
<path d="M334.735 0.969309C336.763 1.99634 337.092 5.10424 337.284 7.12259C337.628 10.6904 336.979 14.352 337.539 17.9154C340.712 19.2996 345.033 18.5048 347.322 21.443V22.2289C345.372 26.2388 340.967 24.0419 337.338 23.8052C338.114 30.5434 335.737 36.853 334.789 43.3501C334.426 45.815 335.668 51.1868 331.887 51.7406C326.186 52.5756 326.313 50.8028 326.49 46.4536C326.75 40.0591 328.371 33.5308 328.651 27.1498C328.705 25.8593 328.7 24.5554 328.602 23.2649C327.914 21.4386 317.444 22.9434 315.868 20.6393C315.308 19.8266 315.195 17.9868 316.079 17.317C317.842 15.9819 326.107 16.9464 328.656 17.1116C329.687 14.3476 327.099 3.89859 328.651 2.33571C329.152 1.83113 330.762 1.74628 331.263 0.964844H334.735V0.969309Z" fill="white"/>
<path d="M82.5391 17.5091L82.7552 20.2643C87.8722 14.7004 98.9018 15.3032 103.164 21.452C105.556 19.9115 107.294 18.0807 110.226 17.2233C120.509 14.2226 131.161 20.0722 131.161 30.3069V51.571L130.507 52.1604H122.262L121.609 51.571V29.521C121.609 26.998 117.239 24.5019 114.508 24.6225C111.321 24.7654 107.284 27.708 107.284 30.6998V51.571L106.631 52.1604H98.3862L97.733 51.571V29.521C97.733 29.3781 96.4218 27.2615 96.191 26.9846C93.9272 24.292 88.1325 23.8678 85.569 26.364C84.8423 27.0739 83.4083 30.6239 83.4083 31.4902V52.1649H74.2939V17.5091H82.5391Z" fill="white"/>
<path d="M43.0382 17.5088V38.5764C43.0382 38.7148 43.8485 40.9029 44.0154 41.2333C46.4708 46.0961 54.4901 46.3417 57.0093 41.4074C57.2352 40.9654 58.2272 38.4156 58.2272 38.1834V17.5088H67.1255L67.7787 18.0982V51.5706L67.1255 52.16H59.0964V48.619L56.0321 51.5438C48.995 55.3349 38.427 52.0797 35.1417 45.3459C34.9109 44.877 33.9238 42.3675 33.9238 42.1219V17.5088H43.0382Z" fill="white"/>
<path d="M233.472 3.83562C234.719 5.1797 233.305 7.11767 233.173 8.64929C232.824 12.7083 233.816 16.7182 234.68 20.6656C235.152 21.2773 235.23 20.8531 235.657 20.7594C238.142 20.2101 244.811 16.4771 244.929 20.4557C245.066 25.1622 238.147 26.6045 234.061 26.9707L237.961 52.3652C236.527 57.0896 231.321 57.0182 229.386 52.2447C226.543 45.2207 228.227 35.9282 224.485 28.9221C222.447 31.2441 211.757 35.2941 211.428 30.3019C211.045 24.4879 224.986 26.3813 224.962 18.8794C224.947 14.6954 223.93 9.77456 224.48 5.48334C224.986 1.54489 231.611 1.82174 233.477 3.83115L233.472 3.83562Z" fill="white"/>
<path d="M194.415 16.8171C198.009 16.317 208.656 19.6928 209.918 23.0373C210.438 24.4127 210.1 26.5784 208.837 27.534C204.948 30.4856 198.152 21.4745 192.195 24.6449C190.569 25.5112 190.8 26.7972 191.728 28.1234C193.869 31.1822 198.81 31.66 202.203 33.1916C205.945 34.8795 210.674 37.4739 210.6 41.707C210.433 51.7541 193.683 59.2381 185.398 51.9774C182.943 49.8251 181.504 45.6946 185.526 44.1898C189.705 42.6269 189.234 46.3376 191.37 47.3468C195.225 49.1731 203.426 46.1233 202.164 41.8991C200.892 37.648 186.498 36.9738 182.889 30.2355C179.746 24.3814 188.595 17.6208 194.424 16.8126L194.415 16.8171Z" fill="white"/>
<path d="M0.5 41.5281H10.0514C10.3559 41.5281 10.4443 44.9173 14.5104 44.5913C16.9412 44.3948 18.7337 42.2738 18.7337 40.1527V6.08643H27.632L28.2851 6.67585V40.5412C28.2851 44.886 25.1128 49.8962 20.7667 51.8341C12.2269 55.6431 0.313396 50.7312 0.504916 41.5236L0.5 41.5281Z" fill="white"/>
<path d="M297.85 21.0497C300.998 20.5317 310.682 11.6054 313.25 16.7272C316.039 22.2911 301.43 23.4074 299.824 27.7656C299.765 30.3868 299.245 33.2535 299.137 35.8033C298.975 39.5274 299.824 45.5021 299.142 48.802C298.454 52.1331 291.579 51.1731 290.916 48.0161C290.302 45.1091 291.088 39.9114 290.901 36.607C290.587 30.9762 287.965 20.9247 290.371 16.0351C292.704 11.2973 298.763 17.6337 297.85 21.0452V21.0497Z" fill="white"/>
<path d="M164.696 18.3888C157.993 16.0489 149.684 16.357 145.053 21.8405V17.5091H137.019L136.366 18.0985V62.9889L137.019 63.5783H145.265L145.918 62.9889V48.6149C149.91 52.5667 155.017 53.7813 160.783 52.8436C179.056 49.8786 182.243 24.5108 164.696 18.3888ZM160.675 44.0914C144.395 50.3072 138.935 25.8683 155.381 24.6983C167.648 23.8276 171.562 39.9342 160.675 44.0914Z" fill="white"/>
<path d="M280.878 43.3324C279.793 42.7653 278.064 43.002 277.868 41.7338C278.123 32.5976 281.683 22.4211 277.45 13.7583C276.718 12.95 275.461 12.3695 274.288 12.4722C273.63 12.5303 270.089 13.9547 269.809 14.3566C269.455 15.4015 271.341 17.3439 270.084 18.1209C269.362 18.5675 265.6 18.2058 264.255 18.3442C242.407 20.5813 237.177 48.5301 263.332 48.539C265.831 48.539 270.408 46.9985 271.906 47.1235C274.872 47.3691 277.087 51.1512 280.873 49.1731C283.559 47.771 283.554 44.739 280.873 43.3324H280.878ZM269.622 40.1441C267.746 41.7918 255.921 40.4031 254.409 38.1034C253.255 36.3486 254.257 33.4952 255.224 31.8073C258.043 26.8864 265.748 25.4486 271.366 25.7746C271.341 30.6016 271.822 35.6564 269.622 40.1441Z" fill="white"/>
<path d="M346.746 64.1278C345.185 65.7934 339.523 66.8516 337.131 67.0124C311.487 68.7226 283.545 65.7174 257.66 66.9811C242.623 67.6643 227.528 68.1466 212.604 70.2141C206.019 71.125 196.403 73.9694 190.397 74.1123C188.453 74.157 182.801 73.3086 184.937 70.7097C186.857 68.3788 199.109 66.5391 202.684 65.9407C245.84 58.6666 290.425 61.3592 334.057 60.6805C336.738 60.6403 340.181 60.4706 342.774 60.6805C344.743 60.8368 348.843 61.8906 346.746 64.1278Z" fill="white"/>
</svg>
