<svg width="49" height="53" viewBox="0 0 49 53" fill="none" xmlns="http://www.w3.org/2000/svg">
<path d="M16.144 48.4445L12.9671 51.3238L2.82715 42.0752L6.00404 39.1523L16.144 48.4445Z" stroke="#4F387E" stroke-width="1.51152" stroke-linejoin="round"/>
<path d="M33.334 48.4445L36.5109 51.3238L46.6508 42.0752L43.4739 39.1523L33.334 48.4445Z" stroke="#4F387E" stroke-width="1.51152" stroke-linejoin="round"/>
<path d="M16.144 4.3389L12.9671 1.41602L2.82715 10.6646L6.00404 13.5874L16.144 4.3389Z" stroke="#4F387E" stroke-width="1.51152" stroke-linejoin="round"/>
<path d="M33.334 4.3389L36.5109 1.41602L46.6508 10.6646L43.4739 13.5874L33.334 4.3389Z" stroke="#4F387E" stroke-width="1.51152" stroke-linejoin="round"/>
<path d="M15.1863 10.6191L16.6225 13.2803L19.8429 13.7165L17.5364 15.7669L18.0586 18.7334L15.1863 17.3374L12.3141 18.7334L12.8798 15.7669L10.5298 13.7165L13.7502 13.2803L15.1863 10.6191Z" stroke="#4F387E" stroke-width="1.51152" stroke-linejoin="round"/>
<path d="M16.2747 28.6387L17.7108 31.2998L20.9312 31.7361L18.5812 33.8301L19.147 36.753L16.2747 35.357L13.4024 36.753L13.9247 33.8301L11.6182 31.7361L14.8386 31.2998L16.2747 28.6387Z" stroke="#4F387E" stroke-width="1.51152" stroke-linejoin="round"/>
<path d="M30.0263 33.2188L31.7671 36.5343L35.7708 37.0578L32.8986 39.6317L33.5514 43.2525L30.0263 41.5512L26.4578 43.2525L27.1105 39.6317L24.2383 37.0578L28.242 36.5343L30.0263 33.2188Z" stroke="#4F387E" stroke-width="1.51152" stroke-linejoin="round"/>
<path d="M30.4181 13.5879L33.0292 18.3867L38.7738 19.1283L34.5959 22.8801L35.5969 28.1151L30.4181 25.6284L25.2828 28.1151L26.2403 22.8801L22.106 19.1283L27.8505 18.3867L30.4181 13.5879Z" stroke="#4F387E" stroke-width="1.51152" stroke-linejoin="round"/>
<path d="M10.0948 48.6177H5.6123L5.8299 44.8223" stroke="#4F387E" stroke-width="1.51152" stroke-linejoin="round"/>
<path d="M33.5516 48.6191H15.1865" stroke="#4F387E" stroke-width="1.51152" stroke-linejoin="round"/>
<path d="M43.6045 44.6914L43.8221 48.6177H39.8184" stroke="#4F387E" stroke-width="1.51152" stroke-linejoin="round"/>
<path d="M43.2125 13.2812C42.6902 20.9593 42.6467 28.6809 43.1254 36.359L43.343 39.849" stroke="#4F387E" stroke-width="1.51152" stroke-linejoin="round"/>
<path d="M39.2959 4.0332H43.8219L43.5608 8.09035" stroke="#4F387E" stroke-width="1.51152" stroke-linejoin="round"/>
<path d="M15.1865 4.0332H34.3349" stroke="#4F387E" stroke-width="1.51152" stroke-linejoin="round"/>
<path d="M5.87342 8.09035L5.6123 4.0332H10.0948" stroke="#4F387E" stroke-width="1.51152" stroke-linejoin="round"/>
<path d="M6.17773 39.3249L6.35181 36.402C6.83052 28.724 6.787 21.0023 6.26477 13.3243V12.6699" stroke="#4F387E" stroke-width="1.51152" stroke-linejoin="round"/>
</svg>
