<svg width="497" height="203" viewBox="0 0 497 203" fill="none" xmlns="http://www.w3.org/2000/svg">
<g filter="url(#filter0_d_494_14089)">
<path d="M358.942 0.764801C360.336 1.54014 360.563 3.89229 360.693 5.41683C360.929 8.11744 360.484 10.879 360.868 13.5797C363.046 14.6251 366.016 14.024 367.593 16.2454V16.8378C366.251 19.8695 363.22 18.2055 360.728 18.0313C361.26 23.1276 359.631 27.8929 358.977 32.8063C358.725 34.6706 359.587 38.7302 356.982 39.1484C353.062 39.7756 353.149 38.4427 353.271 35.1497C353.454 30.3148 354.56 25.384 354.761 20.5577C354.796 19.582 354.796 18.5976 354.726 17.6219C354.256 16.2454 347.06 17.3779 345.971 15.6356C345.587 15.0171 345.509 13.6319 346.119 13.1266C347.33 12.1161 353.01 12.8479 354.761 12.9698C355.466 10.879 353.689 2.97756 354.761 1.80149C355.109 1.41818 356.216 1.35719 356.555 0.764801L358.942 0.764801Z" fill="white"/>
<path d="M185.584 13.2661L185.733 15.3481C189.252 11.1404 196.831 11.6021 199.758 16.2454C201.405 15.0781 202.598 13.6929 204.611 13.0483C211.676 10.7745 219.002 15.2 219.002 22.936V39.009L218.558 39.4533H212.887L212.443 39.009V22.3436C212.443 20.4358 209.437 18.5453 207.564 18.6412C205.377 18.7457 202.598 20.9759 202.598 23.2322V39.009L202.154 39.4533H196.483L196.038 39.009V22.3436C196.038 22.2304 195.141 20.6361 194.976 20.427C193.416 18.3885 189.435 18.0662 187.675 19.9566C187.17 20.4967 186.186 23.1799 186.186 23.8333V39.462H179.922V13.2661H185.593H185.584Z" fill="white"/>
<path d="M158.444 13.2661V29.191C158.444 29.2955 159.002 30.9507 159.115 31.1947C160.805 34.871 166.311 35.0539 168.045 31.3253C168.201 30.9943 168.881 29.0603 168.881 28.8861V13.2661H174.996L175.441 13.7103V39.009L174.996 39.4533H169.473V36.7788L167.365 38.9916C162.53 41.8577 155.265 39.3923 153.008 34.3047C152.851 33.9475 152.172 32.0571 152.172 31.8654V13.2661H158.436H158.444Z" fill="white"/>
<path d="M289.335 2.934C290.198 3.95326 289.222 5.41682 289.126 6.57548C288.891 9.64198 289.571 12.6736 290.163 15.6617C290.485 16.1235 290.538 15.8011 290.834 15.7314C292.541 15.3133 297.124 12.4907 297.202 15.4962C297.298 19.0593 292.541 20.1395 289.727 20.4183L292.411 39.6188C291.426 43.1906 287.846 43.1383 286.522 39.5317C284.57 34.2263 285.72 27.196 283.15 21.8993C281.748 23.659 274.404 26.7168 274.177 22.9447C273.916 18.5453 283.499 19.9827 283.481 14.3114C283.472 11.1491 282.776 7.42922 283.15 4.18848C283.499 1.20909 288.046 1.41817 289.335 2.94271V2.934Z" fill="white"/>
<path d="M262.488 12.7433C264.963 12.3687 272.272 14.9125 273.143 17.4476C273.5 18.4843 273.265 20.1221 272.402 20.8452C269.728 23.0754 265.058 16.2628 260.964 18.6586C259.849 19.3119 260.006 20.2876 260.642 21.2895C262.114 23.6068 265.511 23.964 267.837 25.1226C270.407 26.4032 273.657 28.3633 273.613 31.5605C273.5 39.1571 261.983 44.811 256.294 39.3226C254.604 37.6935 253.62 34.5748 256.382 33.4335C259.256 32.2487 258.934 35.0539 260.398 35.8205C263.046 37.2057 268.682 34.8971 267.811 31.6999C266.94 28.5027 257.044 27.98 254.561 22.8837C252.4 18.4582 258.481 13.3532 262.488 12.7346V12.7433Z" fill="white"/>
<path d="M129.198 31.4211H135.758C135.967 31.4211 136.028 33.9824 138.824 33.7384C140.497 33.5903 141.725 31.9874 141.725 30.3845V4.63278H147.841L148.285 5.07708V30.6807C148.285 33.9649 146.107 37.7545 143.119 39.2181C137.247 42.0929 129.058 38.3818 129.189 31.4211H129.198Z" fill="white"/>
<path d="M333.582 15.9405C335.752 15.5485 342.399 8.79694 344.167 12.6736C346.084 16.8814 336.048 17.7264 334.941 21.0194C334.898 22.997 334.541 25.1662 334.471 27.0914C334.358 29.9053 334.941 34.4267 334.471 36.9182C334.001 39.4097 329.27 38.7128 328.817 36.3258C328.399 34.1305 328.939 30.2015 328.808 27.7013C328.591 23.45 326.787 15.8447 328.443 12.1509C330.098 8.45719 334.21 13.3619 333.582 15.9405Z" fill="white"/>
<path d="M242.056 13.9368C237.448 12.1684 231.742 12.4036 228.553 16.5416V13.266H223.03L222.586 13.7103V47.6423L223.03 48.0865H228.702L229.146 47.6423V36.7788C231.89 39.7669 235.401 40.6816 239.365 39.976C251.927 37.7371 254.113 18.554 242.056 13.9281V13.9368ZM239.295 33.3551C228.1 38.0594 224.354 19.582 235.653 18.6934C244.086 18.0313 246.778 30.2102 239.295 33.3551Z" fill="white"/>
<path d="M321.914 32.7889C321.165 32.362 319.98 32.5362 319.85 31.578C320.024 24.6696 322.472 16.9772 319.562 10.4348C319.057 9.82495 318.195 9.38065 317.384 9.46777C316.931 9.51133 314.501 10.5916 314.309 10.8878C314.065 11.6805 315.363 13.1441 314.501 13.7365C314.004 14.0762 311.417 13.7975 310.493 13.902C295.475 15.5921 291.877 36.7178 309.858 36.7266C311.574 36.7266 314.719 35.5592 315.755 35.655C317.794 35.838 319.318 38.6954 321.923 37.2057C323.77 36.1429 323.77 33.8517 321.923 32.7889H321.914ZM314.179 30.3758C312.889 31.6215 304.761 30.5674 303.725 28.8338C302.932 27.5096 303.62 25.3491 304.282 24.0772C306.216 20.3573 311.513 19.2684 315.381 19.5123C315.363 23.1625 315.694 26.9869 314.179 30.3758Z" fill="white"/>
<path d="M358.942 0.764801C360.336 1.54014 360.563 3.89229 360.693 5.41683C360.929 8.11744 360.484 10.879 360.868 13.5797C363.046 14.6251 366.016 14.024 367.593 16.2454V16.8378C366.251 19.8695 363.22 18.2055 360.728 18.0313C361.26 23.1276 359.631 27.8929 358.977 32.8063C358.725 34.6706 359.587 38.7302 356.982 39.1484C353.062 39.7756 353.149 38.4427 353.271 35.1497C353.454 30.3148 354.56 25.384 354.761 20.5577C354.796 19.582 354.796 18.5976 354.726 17.6219C354.256 16.2454 347.06 17.3779 345.971 15.6356C345.587 15.0171 345.509 13.6319 346.119 13.1266C347.33 12.1161 353.01 12.8479 354.761 12.9698C355.466 10.879 353.689 2.97756 354.761 1.80149C355.109 1.41818 356.216 1.35719 356.555 0.764801L358.942 0.764801Z" fill="white"/>
<path d="M185.584 13.2661L185.733 15.3481C189.252 11.1404 196.831 11.6021 199.758 16.2454C201.405 15.0781 202.598 13.6929 204.611 13.0483C211.676 10.7745 219.002 15.2 219.002 22.936V39.009L218.558 39.4533H212.887L212.443 39.009V22.3436C212.443 20.4358 209.437 18.5453 207.564 18.6412C205.377 18.7457 202.598 20.9759 202.598 23.2322V39.009L202.154 39.4533H196.483L196.038 39.009V22.3436C196.038 22.2304 195.141 20.6361 194.976 20.427C193.416 18.3885 189.435 18.0662 187.675 19.9566C187.17 20.4967 186.186 23.1799 186.186 23.8333V39.462H179.922V13.2661H185.593H185.584Z" fill="white"/>
<path d="M158.444 13.2661V29.191C158.444 29.2955 159.002 30.9507 159.115 31.1947C160.805 34.871 166.311 35.0539 168.045 31.3253C168.201 30.9943 168.881 29.0603 168.881 28.8861V13.2661H174.996L175.441 13.7103V39.009L174.996 39.4533H169.473V36.7788L167.365 38.9916C162.53 41.8577 155.265 39.3923 153.008 34.3047C152.851 33.9475 152.172 32.0571 152.172 31.8654V13.2661H158.436H158.444Z" fill="white"/>
<path d="M289.335 2.934C290.198 3.95326 289.222 5.41682 289.126 6.57548C288.891 9.64198 289.571 12.6736 290.163 15.6617C290.485 16.1235 290.538 15.8011 290.834 15.7314C292.541 15.3133 297.124 12.4907 297.202 15.4962C297.298 19.0593 292.541 20.1395 289.727 20.4183L292.411 39.6188C291.426 43.1906 287.846 43.1383 286.522 39.5317C284.57 34.2263 285.72 27.196 283.15 21.8993C281.748 23.659 274.404 26.7168 274.177 22.9447C273.916 18.5453 283.499 19.9827 283.481 14.3114C283.472 11.1491 282.776 7.42922 283.15 4.18848C283.499 1.20909 288.046 1.41817 289.335 2.94271V2.934Z" fill="white"/>
<path d="M262.488 12.7433C264.963 12.3687 272.272 14.9125 273.143 17.4476C273.5 18.4843 273.265 20.1221 272.402 20.8452C269.728 23.0754 265.058 16.2628 260.964 18.6586C259.849 19.3119 260.006 20.2876 260.642 21.2895C262.114 23.6068 265.511 23.964 267.837 25.1226C270.407 26.4032 273.657 28.3633 273.613 31.5605C273.5 39.1571 261.983 44.811 256.294 39.3226C254.604 37.6935 253.62 34.5748 256.382 33.4335C259.256 32.2487 258.934 35.0539 260.398 35.8205C263.046 37.2057 268.682 34.8971 267.811 31.6999C266.94 28.5027 257.044 27.98 254.561 22.8837C252.4 18.4582 258.481 13.3532 262.488 12.7346V12.7433Z" fill="white"/>
<path d="M129.198 31.4211H135.758C135.967 31.4211 136.028 33.9824 138.824 33.7384C140.497 33.5903 141.725 31.9874 141.725 30.3845V4.63278H147.841L148.285 5.07708V30.6807C148.285 33.9649 146.107 37.7545 143.119 39.2181C137.247 42.0929 129.058 38.3818 129.189 31.4211H129.198Z" fill="white"/>
<path d="M333.582 15.9405C335.752 15.5485 342.399 8.79694 344.167 12.6736C346.084 16.8814 336.048 17.7264 334.941 21.0194C334.898 22.997 334.541 25.1662 334.471 27.0914C334.358 29.9053 334.941 34.4267 334.471 36.9182C334.001 39.4097 329.27 38.7128 328.817 36.3258C328.399 34.1305 328.939 30.2015 328.808 27.7013C328.591 23.45 326.787 15.8447 328.443 12.1509C330.098 8.45719 334.21 13.3619 333.582 15.9405Z" fill="white"/>
<path d="M242.056 13.9368C237.448 12.1684 231.742 12.4036 228.553 16.5416V13.266H223.03L222.586 13.7103V47.6423L223.03 48.0865H228.702L229.146 47.6423V36.7788C231.89 39.7669 235.401 40.6816 239.365 39.976C251.927 37.7371 254.113 18.554 242.056 13.9281V13.9368ZM239.295 33.3551C228.1 38.0594 224.354 19.582 235.653 18.6934C244.086 18.0313 246.778 30.2102 239.295 33.3551Z" fill="white"/>
<path d="M321.914 32.7889C321.165 32.362 319.98 32.5362 319.85 31.578C320.024 24.6696 322.472 16.9772 319.562 10.4348C319.057 9.82495 318.195 9.38065 317.384 9.46777C316.931 9.51133 314.501 10.5916 314.309 10.8878C314.065 11.6805 315.363 13.1441 314.501 13.7365C314.004 14.0762 311.417 13.7975 310.493 13.902C295.475 15.5921 291.877 36.7178 309.858 36.7266C311.574 36.7266 314.719 35.5592 315.755 35.655C317.794 35.838 319.318 38.6954 321.923 37.2057C323.77 36.1429 323.77 33.8517 321.923 32.7889H321.914ZM314.179 30.3758C312.889 31.6215 304.761 30.5674 303.725 28.8338C302.932 27.5096 303.62 25.3491 304.282 24.0772C306.216 20.3573 311.513 19.2684 315.381 19.5123C315.363 23.1625 315.694 26.9869 314.179 30.3758Z" fill="white"/>
<path d="M367.195 48.5047C366.123 49.7679 362.229 50.5694 360.583 50.6826C342.959 51.972 323.75 49.6982 305.96 50.6565C295.62 51.1705 285.253 51.5364 274.99 53.0958C270.46 53.784 263.857 55.9358 259.728 56.0403C258.395 56.0751 254.509 55.4305 255.973 53.4704C257.288 51.7106 265.713 50.3167 268.169 49.8637C297.832 44.3667 328.48 46.3965 358.466 45.8912C360.312 45.8564 362.673 45.7344 364.459 45.8912C365.81 46.0132 368.632 46.8059 367.186 48.496L367.195 48.5047Z" fill="white"/>
</g>
<g filter="url(#filter1_d_494_14089)">
<path d="M343.404 165.468C342.498 164.98 341.574 164.727 340.642 164.727H337.07V171.426H340.468C341.06 171.426 341.679 171.357 342.306 171.2C342.933 171.052 343.5 170.738 344.005 170.259C344.51 169.78 344.763 169.065 344.763 168.133C344.763 166.853 344.31 165.964 343.404 165.468Z" fill="white"/>
<path d="M398.786 170.032C398.446 169.039 398.028 167.889 397.549 166.583H397.479C397.087 167.637 396.704 168.7 396.312 169.78C395.807 171.156 395.301 172.541 394.805 173.935H400.197C400.04 173.5 399.875 173.064 399.718 172.629C399.439 171.897 399.134 171.034 398.795 170.032H398.786Z" fill="white"/>
<path d="M171.459 170.032C171.119 169.039 170.701 167.889 170.222 166.583H170.152C169.76 167.637 169.377 168.7 168.985 169.78C168.479 171.156 167.974 172.541 167.469 173.935H172.861C172.704 173.5 172.539 173.064 172.382 172.629C172.103 171.897 171.798 171.034 171.459 170.032Z" fill="white"/>
<path d="M430.786 165.468C429.88 164.98 428.957 164.727 428.025 164.727H424.453V171.426H427.851C428.443 171.426 429.062 171.357 429.689 171.2C430.316 171.052 430.882 170.738 431.388 170.259C431.893 169.78 432.146 169.065 432.146 168.133C432.146 166.853 431.693 165.964 430.786 165.468Z" fill="white"/>
<path d="M71.3785 165.206C70.7599 164.614 70.0369 164.309 69.218 164.309C68.3991 164.309 67.6412 164.605 67.0226 165.206C66.4041 165.799 65.925 166.722 65.5765 167.968C65.2367 169.214 65.0625 170.764 65.0625 172.62C65.0625 174.475 65.2367 176.017 65.5765 177.254C65.9162 178.491 66.4041 179.406 67.0226 179.999C67.6412 180.591 68.3729 180.896 69.218 180.896C70.063 180.896 70.7599 180.6 71.3785 179.999C71.997 179.406 72.4674 178.491 72.8072 177.254C73.1382 176.017 73.3037 174.475 73.3037 172.62C73.3037 170.764 73.1382 169.214 72.8072 167.968C72.4761 166.722 71.997 165.799 71.3785 165.206Z" fill="white"/>
<path d="M479.631 172.228L492.837 147.94H4L17.2069 172.228L4 194.765H492.846L479.639 172.228H479.631ZM50.4941 170.241C50.0586 171.191 49.4923 172.027 48.7954 172.75C48.0984 173.474 47.2882 174.127 46.3735 174.728C45.7811 175.12 45.2497 175.442 44.7967 175.686C43.882 176.209 43.1241 176.679 42.5317 177.098C41.9393 177.507 41.3905 177.995 40.9026 178.544C40.406 179.093 40.0489 179.702 39.8224 180.364H50.3983V186.001H32.0603V185.243C32.0603 183.361 32.2868 181.75 32.7311 180.382C33.1754 179.023 33.8897 177.777 34.8567 176.653C35.8324 175.529 37.1653 174.362 38.8554 173.151C39.2909 172.811 39.8311 172.428 40.467 172.019C40.7632 171.81 41.0594 171.618 41.3556 171.435C42.1832 170.86 42.8366 170.372 43.3157 169.954C43.7949 169.545 44.1695 169.109 44.4308 168.647C44.6922 168.186 44.8228 167.689 44.8228 167.131C44.8228 166.574 44.6922 166.051 44.4308 165.607C44.1695 165.163 43.7774 164.805 43.2635 164.544C42.7495 164.283 42.1222 164.152 41.3904 164.152C40.4322 164.152 39.6133 164.379 38.9512 164.84C38.2891 165.302 37.7925 165.938 37.4789 166.766C37.1566 167.593 36.9824 168.551 36.9649 169.649L31.2675 168.726C31.2675 166.783 31.7118 165.049 32.5917 163.525C33.4716 162 34.6999 160.815 36.268 159.953C37.8361 159.091 39.6046 158.664 41.5734 158.664C43.3593 158.664 44.9797 159.003 46.4345 159.692C47.8894 160.38 49.0393 161.356 49.8843 162.627C50.7294 163.899 51.1562 165.372 51.1562 167.044C51.1562 168.238 50.9384 169.309 50.5028 170.259L50.4941 170.241ZM78.4673 179.903C77.6048 182.011 76.3852 183.649 74.791 184.816C73.1967 185.983 71.3411 186.567 69.2068 186.567C67.0724 186.567 65.182 185.983 63.5878 184.816C61.9935 183.649 60.7739 182.011 59.9114 179.903C59.049 177.795 58.6221 175.381 58.6221 172.655C58.6221 169.928 59.049 167.471 59.9114 165.354C60.7739 163.237 62.0022 161.591 63.6052 160.406C65.2081 159.23 67.0724 158.638 69.2068 158.638C71.3411 158.638 73.1967 159.23 74.791 160.406C76.3852 161.582 77.6048 163.237 78.4673 165.354C79.3297 167.471 79.7566 169.902 79.7566 172.655C79.7566 175.408 79.3297 177.795 78.4673 179.903ZM107.198 164.832H99.5756V185.992H93.4949V164.832H85.8722V159.204H107.198V164.832ZM137.768 185.983H131.687V175.782H121.041V185.983H114.96V159.195H121.041V169.841H131.687V159.195H137.768V185.983ZM177.292 185.983C177.249 185.87 177.205 185.757 177.153 185.644C176.674 184.337 176.308 183.37 176.073 182.725C175.829 182.081 175.48 181.131 175.027 179.877H165.305C164.8 181.27 164.425 182.307 164.173 182.969C163.92 183.631 163.554 184.642 163.075 185.992H156.759L166.682 159.204H173.86L183.783 185.992H177.292V185.983ZM213.838 185.983H207.557C206.964 185.069 206.363 184.163 205.753 183.274C205.144 182.377 204.534 181.488 203.915 180.591C202.791 178.918 201.633 177.193 200.448 175.408C199.254 173.622 198.183 171.958 197.216 170.424H197.111V185.983H191.031V159.195H197.312C198.017 160.275 198.732 161.347 199.437 162.427C200.814 164.492 202.216 166.617 203.663 168.813C205.109 171.008 206.442 173.116 207.679 175.129H207.748V159.195H213.829V185.983H213.838ZM246.533 185.983H240.252C239.659 185.069 239.058 184.163 238.448 183.274C237.838 182.377 237.229 181.488 236.61 180.591C235.486 178.918 234.328 177.193 233.143 175.408C231.949 173.622 230.878 171.958 229.911 170.424H229.806V185.983H223.726V159.195H230.007C230.712 160.275 231.427 161.347 232.132 162.427C233.509 164.492 234.911 166.617 236.357 168.813C237.804 171.008 239.136 173.116 240.374 175.129H240.443V159.195H246.524V185.983H246.533ZM262.51 185.983H256.429V159.195H262.51V185.983ZM286.894 185.983H279.646L269.758 159.195H276.144C276.37 159.814 276.536 160.267 276.64 160.554C276.745 160.842 276.91 161.277 277.137 161.878C278.147 164.561 279.289 167.628 280.569 171.095C281.85 174.562 282.747 177.028 283.252 178.5H283.322C283.801 177.193 284.367 175.66 285.003 173.9C285.648 172.141 286.319 170.294 287.033 168.368C287.765 166.33 288.427 164.501 289.011 162.889C289.594 161.277 290.047 160.04 290.37 159.195H296.755L286.894 185.983ZM322.098 185.983H303.995V159.195H321.749V164.823H310.076V169.457H321.07V175.399H310.076V180.347H322.098V185.983ZM345.07 185.983L339.024 176.81H337.064V185.983H330.984V159.195H341.664C342.579 159.195 343.729 159.352 345.096 159.674C346.464 159.997 347.823 160.815 349.147 162.131C350.471 163.446 351.142 165.424 351.142 168.055C351.142 169.684 350.864 171.052 350.315 172.175C349.766 173.299 349.069 174.17 348.233 174.806C347.396 175.434 346.464 175.921 345.436 176.27V176.305C346.56 177.951 347.666 179.615 348.764 181.288C349.818 182.847 350.872 184.415 351.926 185.992H345.062L345.07 185.983ZM377.774 182.229C376.972 183.57 375.814 184.624 374.307 185.408C372.791 186.184 370.996 186.576 368.914 186.576C367.032 186.576 365.351 186.254 363.861 185.6C362.372 184.947 361.135 184.023 360.15 182.839C359.166 181.645 358.478 180.242 358.086 178.613L363.748 176.688C364.21 178.335 364.881 179.476 365.778 180.103C366.666 180.73 367.677 181.044 368.801 181.044C369.506 181.044 370.142 180.939 370.709 180.73C371.266 180.521 371.711 180.225 372.033 179.842C372.355 179.458 372.512 178.997 372.512 178.465C372.512 177.934 372.355 177.49 372.033 177.106C371.711 176.723 371.292 176.409 370.778 176.148C370.264 175.887 369.628 175.643 368.871 175.408C368.731 175.364 368.583 175.32 368.426 175.268L366.057 174.545C364.889 174.205 363.792 173.752 362.772 173.186C361.753 172.628 360.865 171.818 360.115 170.764C359.357 169.71 358.983 168.395 358.983 166.818C358.983 165.241 359.392 163.795 360.202 162.558C361.013 161.321 362.136 160.362 363.565 159.674C364.994 158.986 366.614 158.646 368.426 158.646C370.238 158.646 371.676 158.951 373.026 159.552C374.376 160.153 375.465 160.929 376.293 161.87C377.12 162.81 377.652 163.795 377.905 164.823L372.338 167.088C371.946 166.13 371.432 165.398 370.796 164.893C370.151 164.387 369.35 164.135 368.391 164.135C367.773 164.135 367.233 164.23 366.78 164.422C366.318 164.614 365.97 164.884 365.734 165.215C365.49 165.546 365.377 165.921 365.377 166.33C365.377 167.062 365.734 167.663 366.457 168.133C367.18 168.604 368.2 169.057 369.533 169.492C369.559 169.492 369.576 169.492 369.585 169.51C369.594 169.518 369.611 169.527 369.637 169.527L372.556 170.451C372.669 170.477 372.843 170.529 373.07 170.625C374.08 170.947 375.004 171.365 375.849 171.879C376.694 172.393 377.425 173.134 378.044 174.092C378.662 175.05 378.967 176.27 378.967 177.734C378.967 179.38 378.567 180.878 377.765 182.211L377.774 182.229ZM404.632 185.983C404.588 185.87 404.536 185.757 404.493 185.644C404.013 184.337 403.647 183.37 403.412 182.725C403.168 182.081 402.82 181.131 402.367 179.877H392.645C392.139 181.27 391.765 182.307 391.512 182.969C391.259 183.631 390.894 184.642 390.414 185.992H384.099L394.021 159.204H401.199L411.122 185.992H404.632V185.983ZM432.448 185.983L426.402 176.81H424.442V185.983H418.361V159.195H429.042C429.957 159.195 431.107 159.352 432.474 159.674C433.842 159.997 435.201 160.815 436.525 162.131C437.849 163.446 438.52 165.424 438.52 168.055C438.52 169.684 438.241 171.052 437.693 172.175C437.144 173.299 436.447 174.17 435.619 174.806C434.783 175.434 433.851 175.921 432.823 176.27V176.305C433.947 177.951 435.053 179.615 436.151 181.288C437.205 182.847 438.259 184.415 439.313 185.992H432.448V185.983ZM466.589 162.253C465.326 164.701 464.072 167.149 462.808 169.606C461.545 172.062 460.291 174.501 459.028 176.958V185.992H452.947V177.028C452.006 175.198 451.309 173.831 450.847 172.942C450.386 172.045 449.706 170.712 448.783 168.926C447.641 166.731 446.788 165.093 446.239 164.013C445.69 162.932 444.862 161.329 443.765 159.204H450.29C450.473 159.544 450.647 159.901 450.804 160.267C451.971 162.697 452.833 164.492 453.4 165.659C453.957 166.827 454.802 168.595 455.926 170.947H455.996C456.771 169.37 457.538 167.785 458.278 166.191C459.019 164.596 459.785 163.011 460.561 161.434C460.927 160.676 461.284 159.936 461.624 159.204H468.149C467.617 160.214 467.094 161.234 466.572 162.262L466.589 162.253Z" fill="white"/>
</g>
<g filter="url(#filter2_d_494_14089)">
<path d="M116.489 22.1345H7.75V27.2918H116.489V22.1345Z" fill="white"/>
</g>
<g filter="url(#filter3_d_494_14089)">
<path d="M378.37 27.2918L487.109 27.2918V22.1345L378.37 22.1345V27.2918Z" fill="white"/>
</g>
<g filter="url(#filter4_d_494_14089)">
<path d="M10.625 70.2142H30.3395C32.5261 70.2142 34.9131 70.6062 37.5005 71.399C40.0878 72.1917 42.4923 73.8121 44.7312 76.2601C46.9613 78.7168 48.0851 82.1753 48.0851 86.6444C48.0851 89.7109 47.545 92.3244 46.4735 94.4936C45.402 96.6628 44.0081 98.3616 42.3006 99.5812C40.5931 100.81 38.6678 101.707 36.5161 102.273V102.343C38.7027 105.627 40.898 108.911 43.0847 112.196C45.1842 115.306 47.2663 118.398 49.3222 121.456H38.4849L26.3321 103.057H20.2253V121.456H10.625V70.2055V70.2142ZM24.4853 94.5981H28.6233C30.1565 94.5981 31.6201 94.3716 33.0227 93.9099C34.4253 93.4482 35.61 92.6467 36.5683 91.5142C37.5353 90.373 38.0145 88.8223 38.0145 86.8535C38.0145 84.0919 37.0649 82.0795 35.157 80.8076C33.2492 79.5357 31.0974 78.8997 28.6843 78.8997H20.2078V94.6068H24.4765L24.4853 94.5981Z" fill="white"/>
<path d="M61.4723 120.184C58.5801 118.59 56.315 116.334 54.6685 113.415C53.022 110.506 52.2031 107.143 52.2031 103.327C52.2031 99.5115 52.9785 96.2533 54.5378 93.274C56.0885 90.2946 58.2752 87.9598 61.0716 86.2785C63.8768 84.5971 67.0304 83.7521 70.5325 83.7521C73.6861 83.7521 76.6132 84.4665 79.3051 85.8865C81.997 87.3065 84.1575 89.4931 85.7779 92.4202C87.3982 95.356 88.2084 98.9714 88.2084 103.258V105.758H61.272C61.5333 107.596 62.1257 109.164 63.0491 110.453C63.9726 111.743 65.1312 112.718 66.5338 113.38C67.9364 114.034 69.4696 114.365 71.1336 114.365C73.0588 114.365 74.7925 113.86 76.3257 112.858C77.859 111.847 79.0176 110.384 79.8104 108.458L88.3478 111.943C87.0759 115.097 84.9241 117.658 81.875 119.627C78.826 121.596 75.2716 122.58 71.1945 122.58C67.6053 122.58 64.3646 121.779 61.4723 120.184ZM77.5018 94.9553C76.6655 93.8402 75.6636 93.0039 74.4788 92.4551C73.2941 91.9062 71.9786 91.6362 70.5412 91.6362C68.9644 91.6362 67.5705 91.9585 66.3683 92.5857C65.1661 93.2217 64.1642 94.1103 63.3802 95.2428C62.5961 96.384 62.0473 97.6995 61.7337 99.1892H79.0786C78.8608 97.4817 78.3294 96.0704 77.5018 94.9553Z" fill="white"/>
<path d="M99.0942 121.404C97.2299 120.611 95.7315 119.409 94.5903 117.789C93.4491 116.168 92.8828 114.217 92.8828 111.943C92.8828 109.669 93.3968 107.927 94.4248 106.455C95.4528 104.991 96.8292 103.824 98.5628 102.97C100.296 102.116 102.344 101.445 104.705 100.966C105.053 100.879 105.471 100.792 105.95 100.705C108.843 100.095 110.89 99.6248 112.092 99.2937C113.294 98.9627 114.183 98.5619 114.749 98.0741C115.315 97.5949 115.603 96.8893 115.603 95.9746C115.603 95.0598 115.359 94.2845 114.88 93.544C114.401 92.8035 113.695 92.2198 112.78 91.8017C111.857 91.3835 110.829 91.1744 109.696 91.1744C107.989 91.1744 106.49 91.6536 105.192 92.6206C103.903 93.5876 102.971 95.0511 102.396 97.02L93.9892 94.1974C95.0433 90.5646 97.0121 87.9163 99.9044 86.2523C102.797 84.5884 106.168 83.7521 110.019 83.7521C113.042 83.7521 115.655 84.2487 117.868 85.2331C120.081 86.2175 121.779 87.6898 122.955 89.6325C124.14 91.5839 124.733 93.9622 124.733 96.7586V111.02C124.776 113.476 124.881 115.445 125.064 116.935C125.238 118.425 125.525 119.932 125.917 121.465H116.918C116.7 120.672 116.535 119.897 116.422 119.13C116.308 118.364 116.256 117.501 116.256 116.534H116.126C115.159 118.372 113.695 119.845 111.726 120.933C109.757 122.031 107.545 122.58 105.088 122.58C102.945 122.58 100.941 122.188 99.0768 121.395L99.0942 121.404ZM111.9 114.469C113.103 113.703 114.035 112.692 114.697 111.446C115.35 110.201 115.681 108.938 115.681 107.666V104.582C114.671 104.93 113.895 105.218 113.347 105.435C112.798 105.653 111.996 105.897 110.951 106.159C110.385 106.289 109.548 106.49 108.451 106.751C107.309 107.012 106.334 107.343 105.523 107.735C104.713 108.127 104.042 108.659 103.52 109.312C102.997 109.965 102.736 110.732 102.736 111.612C102.736 112.927 103.189 113.921 104.086 114.6C104.983 115.28 106.203 115.619 107.736 115.619C109.269 115.619 110.707 115.236 111.909 114.469H111.9Z" fill="white"/>
<path d="M139.24 120.088C136.722 118.425 134.779 116.116 133.429 113.154C132.07 110.201 131.391 106.855 131.391 103.136C131.391 99.1979 132.122 95.7655 133.595 92.8558C135.058 89.9461 137.053 87.6985 139.571 86.1217C142.089 84.5449 144.885 83.7608 147.951 83.7608C150.495 83.7608 152.708 84.3096 154.59 85.4073C156.472 86.505 157.987 87.9511 159.12 89.7457H159.251V68.9161H168.319V110.044C168.319 112.849 168.415 115.036 168.616 116.612C168.816 118.189 169.112 119.81 169.504 121.474H160.505C160.505 121.474 160.496 121.386 160.47 121.343C160.444 121.299 160.435 121.238 160.435 121.143C160.218 120.271 160.052 119.452 159.939 118.712C159.825 117.972 159.799 117.309 159.843 116.743H159.712C158.44 118.712 156.776 120.184 154.72 121.143C152.665 122.101 150.426 122.589 148.021 122.589C144.693 122.589 141.766 121.752 139.249 120.088H139.24ZM154.869 112.501C156.289 111.56 157.412 110.279 158.223 108.659C159.033 107.038 159.442 105.174 159.442 103.075C159.442 100.975 159.033 99.1108 158.223 97.4904C157.412 95.87 156.289 94.6068 154.842 93.7095C153.396 92.8122 151.776 92.3592 149.981 92.3592C148.187 92.3592 146.584 92.8209 145.181 93.7357C143.779 94.6591 142.681 95.9223 141.897 97.5427C141.104 99.163 140.712 101.027 140.712 103.127C140.712 105.226 141.104 107.03 141.897 108.65C142.69 110.27 143.779 111.551 145.181 112.492C146.584 113.433 148.204 113.903 150.042 113.903C151.88 113.903 153.449 113.433 154.869 112.492V112.501Z" fill="white"/>
</g>
<g filter="url(#filter5_d_494_14089)">
<path d="M257.609 70.2142H277.315C279.502 70.2142 281.889 70.6062 284.476 71.399C287.063 72.1917 289.468 73.8121 291.707 76.2601C293.937 78.7168 295.061 82.1753 295.061 86.6444C295.061 89.7109 294.521 92.3244 293.449 94.4936C292.378 96.6628 290.984 98.3616 289.276 99.5812C287.569 100.81 285.643 101.707 283.492 102.273V102.343C285.678 105.627 287.874 108.911 290.06 112.196C292.16 115.306 294.242 118.398 296.307 121.456H285.469L273.316 103.057H267.21V121.456H257.618V70.2055L257.609 70.2142ZM271.478 94.5981H275.616C277.15 94.5981 278.613 94.3716 280.016 93.9099C281.418 93.4482 282.603 92.6467 283.561 91.5142C284.528 90.373 285.008 88.8223 285.008 86.8535C285.008 84.0919 284.058 82.0795 282.15 80.8076C280.242 79.5357 278.09 78.8997 275.677 78.8997H267.201V94.6068H271.47L271.478 94.5981Z" fill="white"/>
<path d="M308.472 120.184C305.58 118.59 303.315 116.334 301.669 113.415C300.022 110.506 299.203 107.143 299.203 103.327C299.203 99.5115 299.978 96.2533 301.538 93.274C303.089 90.2946 305.275 87.9598 308.072 86.2785C310.877 84.5971 314.03 83.7521 317.532 83.7521C320.686 83.7521 323.613 84.4665 326.305 85.8865C328.997 87.3065 331.158 89.4931 332.778 92.4202C334.398 95.356 335.208 98.9714 335.208 103.258V105.758H308.272C308.533 107.596 309.126 109.164 310.049 110.453C310.973 111.743 312.131 112.718 313.534 113.38C314.936 114.034 316.47 114.365 318.134 114.365C320.059 114.365 321.792 113.86 323.326 112.858C324.859 111.847 326.018 110.384 326.81 108.458L335.348 111.943C334.076 115.097 331.924 117.658 328.875 119.627C325.826 121.596 322.272 122.58 318.195 122.58C314.605 122.58 311.365 121.779 308.472 120.184ZM324.502 94.9553C323.665 93.8402 322.664 93.0039 321.479 92.4551C320.294 91.9062 318.979 91.6362 317.532 91.6362C315.956 91.6362 314.562 91.9585 313.36 92.5857C312.157 93.2217 311.156 94.1103 310.371 95.2428C309.587 96.384 309.039 97.6995 308.734 99.1892H326.079C325.861 97.4817 325.329 96.0704 324.502 94.9553Z" fill="white"/>
<path d="M349.197 120.219C346.305 118.642 344.031 116.386 342.367 113.45C340.704 110.514 339.867 107.099 339.867 103.205C339.867 99.3111 340.677 95.8874 342.298 92.9516C343.918 90.0158 346.148 87.7508 348.997 86.1478C351.846 84.5536 355.043 83.7521 358.589 83.7521C362.622 83.7521 366.159 84.7627 369.199 86.7751C372.24 88.7874 374.4 91.5926 375.672 95.1818L367.196 98.5968C366.499 96.4973 365.375 94.9292 363.842 93.9012C362.308 92.8732 360.557 92.3592 358.589 92.3592C356.75 92.3592 355.113 92.8297 353.693 93.7705C352.273 94.7114 351.166 96.0007 350.373 97.6472C349.581 99.2937 349.189 101.123 349.189 103.136C349.189 105.322 349.624 107.239 350.504 108.885C351.384 110.532 352.56 111.786 354.05 112.666C355.539 113.546 357.177 113.982 358.981 113.982C361.037 113.982 362.875 113.415 364.495 112.274C366.115 111.133 367.344 109.469 368.171 107.282L376.578 110.697C375.306 114.374 373.093 117.275 369.94 119.4C366.786 121.526 363.11 122.589 358.902 122.589C355.313 122.589 352.072 121.796 349.18 120.228L349.197 120.219Z" fill="white"/>
<path d="M389.048 120.123C386.182 118.477 383.943 116.194 382.349 113.259C380.746 110.323 379.953 106.977 379.953 103.205C379.953 99.4331 380.755 96.0878 382.349 93.152C383.943 90.2162 386.182 87.9163 389.048 86.2523C391.914 84.5884 395.19 83.7521 398.866 83.7521C402.542 83.7521 405.818 84.5884 408.693 86.2523C411.559 87.9163 413.781 90.2162 415.357 93.152C416.934 96.0878 417.727 99.4331 417.727 103.205C417.727 106.977 416.925 110.323 415.331 113.259C413.728 116.194 411.507 118.485 408.658 120.123C405.809 121.77 402.551 122.589 398.866 122.589C395.181 122.589 391.914 121.77 389.048 120.123ZM403.832 112.596C405.252 111.673 406.358 110.41 407.151 108.789C407.944 107.169 408.336 105.305 408.336 103.205C408.336 101.106 407.944 99.2327 407.151 97.5862C406.358 95.9397 405.243 94.6591 403.797 93.7444C402.351 92.8297 400.713 92.3679 398.866 92.3679C397.019 92.3679 395.381 92.8297 393.935 93.7444C392.489 94.6591 391.365 95.9484 390.555 97.5862C389.745 99.224 389.336 101.097 389.336 103.205C389.336 105.313 389.728 107.169 390.52 108.789C391.313 110.41 392.437 111.682 393.901 112.596C395.364 113.511 397.019 113.973 398.857 113.973C400.696 113.973 402.394 113.511 403.814 112.596H403.832Z" fill="white"/>
<path d="M424.492 84.8062H433.43V90.5908H433.692C434.702 88.5784 436.087 86.9319 437.865 85.66C439.642 84.3881 441.706 83.7521 444.076 83.7521C445.304 83.7521 446.48 83.9699 447.622 84.4055V94.5284C446.968 94.3106 446.228 94.1364 445.418 94.0057C444.607 93.8751 443.85 93.8054 443.153 93.8054C440.565 93.8054 438.562 94.4762 437.142 95.809C435.722 97.1506 434.763 98.7449 434.284 100.609C433.805 102.473 433.561 104.564 433.561 106.882V121.465H424.492V84.8062Z" fill="white"/>
<path d="M457.771 120.088C455.253 118.425 453.311 116.116 451.96 113.154C450.601 110.201 449.922 106.855 449.922 103.136C449.922 99.1979 450.654 95.7655 452.126 92.8558C453.59 89.9461 455.584 87.6985 458.102 86.1217C460.62 84.5449 463.416 83.7608 466.483 83.7608C469.027 83.7608 471.239 84.3096 473.121 85.4073C475.003 86.505 476.519 87.9511 477.651 89.7457H477.782V68.9161H486.851V110.044C486.851 112.849 486.946 115.036 487.147 116.612C487.347 118.189 487.643 119.81 488.035 121.474H479.036C479.036 121.474 479.028 121.386 479.001 121.343C478.975 121.299 478.967 121.238 478.967 121.143C478.749 120.271 478.583 119.452 478.47 118.712C478.357 117.972 478.331 117.309 478.374 116.743H478.243C476.972 118.712 475.308 120.184 473.252 121.143C471.196 122.101 468.957 122.589 466.552 122.589C463.225 122.589 460.297 121.752 457.78 120.088H457.771ZM473.409 112.501C474.829 111.56 475.952 110.279 476.763 108.659C477.573 107.038 477.982 105.174 477.982 103.075C477.982 100.975 477.573 99.1108 476.763 97.4904C475.952 95.87 474.829 94.6068 473.382 93.7095C471.936 92.8122 470.316 92.3592 468.521 92.3592C466.727 92.3592 465.124 92.8209 463.721 93.7357C462.319 94.6591 461.221 95.9223 460.437 97.5427C459.644 99.163 459.252 101.027 459.252 103.127C459.252 105.226 459.644 107.03 460.437 108.65C461.23 110.27 462.319 111.551 463.721 112.492C465.124 113.433 466.744 113.903 468.582 113.903C470.42 113.903 471.989 113.433 473.409 112.492V112.501Z" fill="white"/>
</g>
<g filter="url(#filter6_d_494_14089)">
<path d="M214.293 87.8378C213.788 87.5242 213.204 87.3761 212.551 87.3761C211.898 87.3761 211.323 87.5329 210.809 87.8378C210.295 88.1515 209.903 88.5783 209.615 89.1359C209.328 89.6934 209.18 90.3207 209.18 91.0263C209.18 91.732 209.319 92.3679 209.598 92.908C209.877 93.4569 210.277 93.8837 210.791 94.1974C211.305 94.511 211.889 94.6591 212.542 94.6591C213.196 94.6591 213.788 94.5023 214.293 94.1974C214.799 93.8837 215.191 93.4569 215.47 92.908C215.748 92.3592 215.888 91.732 215.888 91.0263C215.888 90.3207 215.748 89.6847 215.47 89.1359C215.191 88.5783 214.79 88.1515 214.285 87.8378H214.293Z" fill="white"/>
<path d="M228.051 109.748C227.746 109.373 227.389 109.094 226.98 108.903C226.57 108.711 226.108 108.624 225.603 108.624C225.046 108.624 224.549 108.728 224.122 108.946C223.695 109.164 223.338 109.46 223.059 109.844C222.781 110.227 222.589 110.671 222.484 111.176H228.626C228.556 110.601 228.365 110.122 228.06 109.748H228.051Z" fill="white"/>
<path d="M213.237 75.4063C213.237 75.4063 196.929 67.8794 182.703 69.4562V125.829C182.703 125.829 202.052 126.065 213.237 131.483C224.432 126.056 243.781 125.829 243.781 125.829V69.4562C229.554 67.8794 213.237 75.4063 213.237 75.4063ZM221.47 84.8236H224.51V86.775H224.598C224.955 86.0955 225.443 85.538 226.061 85.1111C226.68 84.6842 227.403 84.4664 228.23 84.4664C228.657 84.4664 229.075 84.5361 229.467 84.6842V88.0992C229.232 88.0295 228.971 87.9685 228.692 87.925C228.413 87.8814 228.152 87.8553 227.917 87.8553C227.019 87.8553 226.314 88.0818 225.826 88.5348C225.329 88.9878 224.998 89.5279 224.815 90.1639C224.641 90.7998 224.545 91.5055 224.545 92.2721V97.1942H221.461V84.8236H221.47ZM203.219 109.094H199.743V113.729C199.743 114.243 199.778 114.678 199.839 115.027C199.9 115.375 200.065 115.672 200.318 115.924C200.571 116.177 200.954 116.299 201.468 116.299C201.982 116.299 202.522 116.168 203.132 115.898L203.219 115.855V118.599C202.905 118.764 202.557 118.877 202.156 118.956C201.756 119.026 201.329 119.069 200.867 119.069C199.595 119.069 198.654 118.825 198.044 118.329C197.435 117.832 197.051 117.292 196.903 116.7C196.755 116.107 196.685 115.463 196.685 114.774V109.103H194.159V106.333H196.685V102.831H199.743V106.333H203.219V109.103V109.094ZM205.266 87.5939H202.252V97.1942H199.168V87.5939H197.286V84.8236H199.168V83.4733C199.186 82.4366 199.377 81.6003 199.752 80.9556C200.126 80.311 200.632 79.8405 201.259 79.5356C201.886 79.2307 202.618 79.0826 203.446 79.0826C204.273 79.0826 204.979 79.2046 205.571 79.4398V82.0098C205.292 81.8965 205.031 81.8094 204.796 81.7571C204.561 81.7048 204.334 81.6787 204.108 81.6787C203.559 81.6787 203.149 81.7832 202.871 82.001C202.592 82.2188 202.418 82.4715 202.348 82.7764C202.278 83.0813 202.243 83.4385 202.243 83.8479V84.8236H205.258V87.5939H205.266ZM216.984 118.686H213.926V112.239C213.926 111.577 213.856 111.002 213.708 110.523C213.56 110.044 213.298 109.652 212.933 109.338C212.567 109.025 212.07 108.877 211.452 108.877C210.903 108.877 210.406 108.998 209.971 109.251C209.526 109.504 209.178 109.878 208.925 110.392C208.673 110.906 208.551 111.542 208.551 112.309V118.695H205.467V100.966H208.551V108.171H208.594C209.056 107.448 209.622 106.899 210.302 106.533C210.981 106.167 211.73 105.976 212.541 105.976C213.351 105.976 214.1 106.158 214.771 106.516C215.442 106.882 215.982 107.43 216.391 108.171C216.801 108.911 217.001 109.817 217.001 110.898V118.703L216.984 118.686ZM218.264 94.4239C217.707 95.417 216.94 96.1836 215.947 96.7412C214.954 97.2987 213.83 97.5688 212.558 97.5688C211.286 97.5688 210.136 97.29 209.143 96.7412C208.15 96.1836 207.383 95.417 206.826 94.4239C206.268 93.4307 205.998 92.3069 205.998 91.035C205.998 89.7631 206.277 88.6306 206.826 87.6462C207.383 86.6531 208.15 85.8777 209.143 85.3202C210.136 84.7626 211.269 84.4751 212.558 84.4751C213.847 84.4751 214.962 84.7539 215.964 85.3202C216.966 85.8864 217.733 86.6618 218.282 87.6462C218.83 88.6393 219.1 89.7631 219.1 91.035C219.1 92.3069 218.822 93.4395 218.273 94.4239H218.264ZM229.511 118.067C228.457 118.729 227.228 119.06 225.817 119.06C224.563 119.06 223.43 118.79 222.437 118.25C221.444 117.71 220.66 116.952 220.085 115.968C219.519 114.983 219.231 113.851 219.231 112.562C219.231 111.272 219.501 110.175 220.041 109.173C220.581 108.171 221.339 107.378 222.315 106.812C223.291 106.246 224.38 105.958 225.591 105.958C226.671 105.958 227.681 106.202 228.614 106.681C229.546 107.16 230.304 107.892 230.861 108.885C231.419 109.878 231.706 111.098 231.706 112.544V113.389H222.306C222.393 114.008 222.603 114.539 222.925 114.975C223.247 115.41 223.657 115.741 224.153 115.959C224.65 116.177 225.19 116.29 225.782 116.29C226.462 116.29 227.072 116.116 227.612 115.776C228.152 115.436 228.561 114.94 228.84 114.295L231.741 115.471C231.297 116.534 230.548 117.397 229.493 118.067H229.511Z" fill="white"/>
</g>
<defs>
<filter id="filter0_d_494_14089" x="125.188" y="0.764801" width="246.405" height="63.2768" filterUnits="userSpaceOnUse" color-interpolation-filters="sRGB">
<feFlood flood-opacity="0" result="BackgroundImageFix"/>
<feColorMatrix in="SourceAlpha" type="matrix" values="0 0 0 0 0 0 0 0 0 0 0 0 0 0 0 0 0 0 127 0" result="hardAlpha"/>
<feOffset dy="4"/>
<feGaussianBlur stdDeviation="2"/>
<feComposite in2="hardAlpha" operator="out"/>
<feColorMatrix type="matrix" values="0 0 0 0 0 0 0 0 0 0 0 0 0 0 0 0 0 0 0.25 0"/>
<feBlend mode="normal" in2="BackgroundImageFix" result="effect1_dropShadow_494_14089"/>
<feBlend mode="normal" in="SourceGraphic" in2="effect1_dropShadow_494_14089" result="shape"/>
</filter>
<filter id="filter1_d_494_14089" x="0" y="147.94" width="496.846" height="54.8252" filterUnits="userSpaceOnUse" color-interpolation-filters="sRGB">
<feFlood flood-opacity="0" result="BackgroundImageFix"/>
<feColorMatrix in="SourceAlpha" type="matrix" values="0 0 0 0 0 0 0 0 0 0 0 0 0 0 0 0 0 0 127 0" result="hardAlpha"/>
<feOffset dy="4"/>
<feGaussianBlur stdDeviation="2"/>
<feComposite in2="hardAlpha" operator="out"/>
<feColorMatrix type="matrix" values="0 0 0 0 0 0 0 0 0 0 0 0 0 0 0 0 0 0 0.25 0"/>
<feBlend mode="normal" in2="BackgroundImageFix" result="effect1_dropShadow_494_14089"/>
<feBlend mode="normal" in="SourceGraphic" in2="effect1_dropShadow_494_14089" result="shape"/>
</filter>
<filter id="filter2_d_494_14089" x="3.75" y="22.1345" width="116.739" height="13.1573" filterUnits="userSpaceOnUse" color-interpolation-filters="sRGB">
<feFlood flood-opacity="0" result="BackgroundImageFix"/>
<feColorMatrix in="SourceAlpha" type="matrix" values="0 0 0 0 0 0 0 0 0 0 0 0 0 0 0 0 0 0 127 0" result="hardAlpha"/>
<feOffset dy="4"/>
<feGaussianBlur stdDeviation="2"/>
<feComposite in2="hardAlpha" operator="out"/>
<feColorMatrix type="matrix" values="0 0 0 0 0 0 0 0 0 0 0 0 0 0 0 0 0 0 0.25 0"/>
<feBlend mode="normal" in2="BackgroundImageFix" result="effect1_dropShadow_494_14089"/>
<feBlend mode="normal" in="SourceGraphic" in2="effect1_dropShadow_494_14089" result="shape"/>
</filter>
<filter id="filter3_d_494_14089" x="374.37" y="22.1345" width="116.739" height="13.1573" filterUnits="userSpaceOnUse" color-interpolation-filters="sRGB">
<feFlood flood-opacity="0" result="BackgroundImageFix"/>
<feColorMatrix in="SourceAlpha" type="matrix" values="0 0 0 0 0 0 0 0 0 0 0 0 0 0 0 0 0 0 127 0" result="hardAlpha"/>
<feOffset dy="4"/>
<feGaussianBlur stdDeviation="2"/>
<feComposite in2="hardAlpha" operator="out"/>
<feColorMatrix type="matrix" values="0 0 0 0 0 0 0 0 0 0 0 0 0 0 0 0 0 0 0.25 0"/>
<feBlend mode="normal" in2="BackgroundImageFix" result="effect1_dropShadow_494_14089"/>
<feBlend mode="normal" in="SourceGraphic" in2="effect1_dropShadow_494_14089" result="shape"/>
</filter>
<filter id="filter4_d_494_14089" x="6.625" y="68.9161" width="166.879" height="61.6725" filterUnits="userSpaceOnUse" color-interpolation-filters="sRGB">
<feFlood flood-opacity="0" result="BackgroundImageFix"/>
<feColorMatrix in="SourceAlpha" type="matrix" values="0 0 0 0 0 0 0 0 0 0 0 0 0 0 0 0 0 0 127 0" result="hardAlpha"/>
<feOffset dy="4"/>
<feGaussianBlur stdDeviation="2"/>
<feComposite in2="hardAlpha" operator="out"/>
<feColorMatrix type="matrix" values="0 0 0 0 0 0 0 0 0 0 0 0 0 0 0 0 0 0 0.25 0"/>
<feBlend mode="normal" in2="BackgroundImageFix" result="effect1_dropShadow_494_14089"/>
<feBlend mode="normal" in="SourceGraphic" in2="effect1_dropShadow_494_14089" result="shape"/>
</filter>
<filter id="filter5_d_494_14089" x="253.609" y="68.9161" width="238.426" height="61.6725" filterUnits="userSpaceOnUse" color-interpolation-filters="sRGB">
<feFlood flood-opacity="0" result="BackgroundImageFix"/>
<feColorMatrix in="SourceAlpha" type="matrix" values="0 0 0 0 0 0 0 0 0 0 0 0 0 0 0 0 0 0 127 0" result="hardAlpha"/>
<feOffset dy="4"/>
<feGaussianBlur stdDeviation="2"/>
<feComposite in2="hardAlpha" operator="out"/>
<feColorMatrix type="matrix" values="0 0 0 0 0 0 0 0 0 0 0 0 0 0 0 0 0 0 0.25 0"/>
<feBlend mode="normal" in2="BackgroundImageFix" result="effect1_dropShadow_494_14089"/>
<feBlend mode="normal" in="SourceGraphic" in2="effect1_dropShadow_494_14089" result="shape"/>
</filter>
<filter id="filter6_d_494_14089" x="178.703" y="69.2391" width="69.0771" height="70.2442" filterUnits="userSpaceOnUse" color-interpolation-filters="sRGB">
<feFlood flood-opacity="0" result="BackgroundImageFix"/>
<feColorMatrix in="SourceAlpha" type="matrix" values="0 0 0 0 0 0 0 0 0 0 0 0 0 0 0 0 0 0 127 0" result="hardAlpha"/>
<feOffset dy="4"/>
<feGaussianBlur stdDeviation="2"/>
<feComposite in2="hardAlpha" operator="out"/>
<feColorMatrix type="matrix" values="0 0 0 0 0 0 0 0 0 0 0 0 0 0 0 0 0 0 0.25 0"/>
<feBlend mode="normal" in2="BackgroundImageFix" result="effect1_dropShadow_494_14089"/>
<feBlend mode="normal" in="SourceGraphic" in2="effect1_dropShadow_494_14089" result="shape"/>
</filter>
</defs>
</svg>
