<svg width="166" height="22" viewBox="0 0 166 22" fill="none" xmlns="http://www.w3.org/2000/svg">
<path d="M0 0.454569H6.85484C7.61514 0.454569 8.44511 0.59094 9.34475 0.866712C10.2444 1.14248 11.0804 1.70615 11.8589 2.55771C12.6343 3.4123 13.0251 4.61539 13.0251 6.17002C13.0251 7.23674 12.8373 8.14588 12.4647 8.90047C12.0921 9.65505 11.6075 10.246 11.0138 10.6703C10.4201 11.0976 9.75065 11.4097 9.00246 11.6067V11.6309C9.76276 12.7734 10.5261 13.9159 11.2864 15.0584C12.0164 16.1402 12.7404 17.2161 13.4552 18.2797H9.68704L5.46145 11.8794H3.33806V18.2797H0V0.451538V0.454569ZM4.81929 8.9338H6.2581C6.79122 8.9338 7.30011 8.85501 7.7878 8.6944C8.27548 8.53378 8.68744 8.25498 9.02064 7.86102C9.35686 7.46403 9.52347 6.92461 9.52347 6.23972C9.52347 5.27907 9.19329 4.57903 8.52992 4.13658C7.86655 3.69413 7.11837 3.47291 6.27931 3.47291H3.332V8.93683H4.81626L4.81929 8.9338Z" fill="white"/>
<path d="M17.6839 17.8343C16.6782 17.2797 15.8907 16.4948 15.3182 15.4796C14.7457 14.4674 14.4609 13.2977 14.4609 11.9703C14.4609 10.643 14.7305 9.5096 15.2727 8.47318C15.8119 7.43677 16.5722 6.6246 17.5446 6.03972C18.5199 5.45484 19.6165 5.16089 20.8341 5.16089C21.9307 5.16089 22.9485 5.40939 23.8844 5.90335C24.8204 6.39732 25.5716 7.15796 26.1351 8.1762C26.6985 9.19747 26.9802 10.4551 26.9802 11.9461V12.8158H17.6142C17.7051 13.4553 17.9111 14.0007 18.2322 14.4493C18.5532 14.8978 18.9561 15.2372 19.4438 15.4675C19.9315 15.6948 20.4646 15.8099 21.0432 15.8099C21.7126 15.8099 22.3154 15.6342 22.8485 15.2857C23.3816 14.9341 23.7845 14.425 24.0601 13.7553L27.0286 14.9675C26.5864 16.0645 25.8382 16.9554 24.778 17.6403C23.7178 18.3252 22.482 18.6677 21.0644 18.6677C19.8164 18.6677 18.6896 18.3889 17.6839 17.8343ZM23.2574 9.05806C22.9666 8.67016 22.6183 8.37924 22.2063 8.18832C21.7944 7.9974 21.337 7.90346 20.8372 7.90346C20.2889 7.90346 19.8043 8.01558 19.3862 8.23378C18.9682 8.455 18.6199 8.76411 18.3473 9.15807C18.0746 9.55506 17.8838 10.0127 17.7748 10.5309H23.8057C23.73 9.9369 23.5452 9.44596 23.2574 9.05806Z" fill="white"/>
<path d="M30.7535 18.2585C30.1053 17.9828 29.5843 17.5646 29.1875 17.0009C28.7906 16.4372 28.5938 15.7584 28.5938 14.9675C28.5938 14.1765 28.7725 13.5704 29.1299 13.0583C29.4873 12.5492 29.9659 12.1431 30.5687 11.8461C31.1715 11.5491 31.8833 11.3158 32.7042 11.1491C32.8254 11.1188 32.9708 11.0885 33.1374 11.0582C34.143 10.846 34.8549 10.6824 35.2729 10.5672C35.6909 10.4521 35.9999 10.3127 36.1968 10.143C36.3937 9.97629 36.4936 9.73083 36.4936 9.41263C36.4936 9.09443 36.4088 8.82472 36.2422 8.56713C36.0756 8.30954 35.8302 8.1065 35.5122 7.96104C35.1911 7.81558 34.8337 7.74284 34.4399 7.74284C33.8462 7.74284 33.3252 7.90952 32.8739 8.2459C32.4256 8.58228 32.1014 9.0914 31.9015 9.77628L28.9784 8.79441C29.345 7.53071 30.0295 6.60945 31.0352 6.03063C32.0409 5.45181 33.2131 5.16089 34.552 5.16089C35.6031 5.16089 36.5118 5.33363 37.2812 5.67607C38.0506 6.01851 38.6412 6.53066 39.0502 7.20645C39.4621 7.88527 39.6681 8.71259 39.6681 9.68537V14.6462C39.6833 15.5008 39.7226 16.1857 39.7832 16.7039C39.8438 17.2221 39.9438 17.7464 40.0801 18.2798H36.951C36.8753 18.004 36.8177 17.7343 36.7784 17.4676C36.739 17.2009 36.7208 16.9009 36.7208 16.5645H36.6754C36.3391 17.2039 35.8302 17.7161 35.1457 18.0949C34.4611 18.4767 33.6917 18.6677 32.8375 18.6677C32.0923 18.6677 31.3957 18.5313 30.7474 18.2555L30.7535 18.2585ZM35.2093 15.8463C35.6273 15.5796 35.9514 15.2281 36.1816 14.7947C36.4088 14.3614 36.5239 13.922 36.5239 13.4795V12.4067C36.1725 12.5279 35.9029 12.6279 35.7121 12.7037C35.5213 12.7795 35.2426 12.8643 34.8791 12.9552C34.6822 13.0007 34.3914 13.0704 34.0098 13.1613C33.613 13.2522 33.2737 13.3674 32.992 13.5038C32.7103 13.6401 32.477 13.825 32.2953 14.0523C32.1136 14.2796 32.0227 14.5462 32.0227 14.8523C32.0227 15.3099 32.1802 15.6554 32.4922 15.8918C32.8042 16.1281 33.2283 16.2463 33.7614 16.2463C34.2945 16.2463 34.7943 16.113 35.2123 15.8463H35.2093Z" fill="white"/>
<path d="M44.7136 17.8009C43.8382 17.2221 43.1627 16.419 42.6932 15.3887C42.2206 14.3614 41.9844 13.1977 41.9844 11.9037C41.9844 10.5339 42.2388 9.33989 42.7507 8.32771C43.2596 7.31554 43.9533 6.53368 44.8287 5.98516C45.7041 5.43665 46.6764 5.16391 47.7427 5.16391C48.6272 5.16391 49.3966 5.35483 50.0508 5.73667C50.7051 6.1185 51.2322 6.62156 51.626 7.24584H51.6714V0H54.8247V14.3068C54.8247 15.2826 54.858 16.0433 54.9277 16.5918C54.9974 17.1403 55.1003 17.704 55.2367 18.2828H52.1076C52.1076 18.2828 52.1046 18.2525 52.0955 18.2373C52.0864 18.2222 52.0834 18.201 52.0834 18.1676C52.0076 17.8646 51.9501 17.5797 51.9107 17.3221C51.8713 17.0645 51.8622 16.8342 51.8774 16.6372H51.832C51.3897 17.3221 50.8112 17.8343 50.0963 18.1676C49.3814 18.504 48.6029 18.6707 47.7669 18.6707C46.6098 18.6707 45.592 18.3798 44.7166 17.8009H44.7136ZM50.1508 15.1614C50.6446 14.8341 51.0353 14.3886 51.317 13.825C51.5987 13.2613 51.7411 12.6128 51.7411 11.8824C51.7411 11.1521 51.5987 10.5036 51.317 9.93992C51.0353 9.37625 50.6415 8.93683 50.1417 8.6247C49.6389 8.31256 49.0755 8.15497 48.4515 8.15497C47.8275 8.15497 47.2701 8.31559 46.7825 8.63379C46.2948 8.95502 45.9131 9.39443 45.6405 9.9581C45.3679 10.5218 45.2285 11.1703 45.2285 11.9006C45.2285 12.631 45.3648 13.2583 45.6405 13.8219C45.9161 14.3856 46.2948 14.8311 46.7825 15.1584C47.2701 15.4857 47.8336 15.6493 48.4727 15.6493C49.1118 15.6493 49.6571 15.4857 50.1508 15.1584V15.1614Z" fill="white"/>
<path d="M85.8828 0.454569H92.7376C93.498 0.454569 94.3279 0.59094 95.2276 0.866712C96.1272 1.14248 96.9632 1.70615 97.7417 2.55771C98.5172 3.4123 98.9079 4.61539 98.9079 6.17002C98.9079 7.23674 98.7201 8.14588 98.3475 8.90047C97.9749 9.65505 97.4903 10.246 96.8966 10.6703C96.3029 11.0976 95.6335 11.4097 94.8853 11.6067V11.6309C95.6456 12.7734 96.4089 13.9159 97.1692 15.0584C97.8992 16.1402 98.6232 17.2161 99.338 18.2797H95.5699L91.3443 11.8794H89.2209V18.2797H85.8858V0.451538L85.8828 0.454569ZM90.7021 8.9338H92.1409C92.674 8.9338 93.1829 8.85501 93.6706 8.6944C94.1583 8.53378 94.5702 8.25498 94.9034 7.86102C95.2397 7.46403 95.4063 6.92461 95.4063 6.23972C95.4063 5.27907 95.0761 4.57903 94.4127 4.13658C93.7494 3.69413 93.0012 3.47291 92.1621 3.47291H89.2148V8.93683H90.6991L90.7021 8.9338Z" fill="white"/>
<path d="M103.567 17.8343C102.561 17.2797 101.773 16.4948 101.201 15.4796C100.628 14.4674 100.344 13.2977 100.344 11.9703C100.344 10.643 100.613 9.5096 101.156 8.47318C101.695 7.43677 102.455 6.6246 103.427 6.03972C104.403 5.45484 105.499 5.16089 106.717 5.16089C107.813 5.16089 108.831 5.40939 109.767 5.90335C110.703 6.39732 111.454 7.15796 112.018 8.1762C112.581 9.19747 112.863 10.4551 112.863 11.9461V12.8158H103.497C103.588 13.4553 103.794 14.0007 104.115 14.4493C104.436 14.8978 104.839 15.2372 105.327 15.4675C105.814 15.6948 106.347 15.8099 106.926 15.8099C107.595 15.8099 108.198 15.6342 108.731 15.2857C109.264 14.9341 109.667 14.425 109.943 13.7553L112.911 14.9675C112.469 16.0645 111.721 16.9554 110.661 17.6403C109.601 18.3252 108.365 18.6677 106.947 18.6677C105.699 18.6677 104.572 18.3889 103.567 17.8343ZM109.14 9.05806C108.849 8.67016 108.501 8.37924 108.089 8.18832C107.677 7.9974 107.22 7.90346 106.72 7.90346C106.172 7.90346 105.687 8.01558 105.269 8.23378C104.851 8.455 104.503 8.76411 104.23 9.15807C103.957 9.55506 103.767 10.0127 103.658 10.5309H109.688C109.613 9.9369 109.428 9.44596 109.14 9.05806Z" fill="white"/>
<path d="M117.729 17.8464C116.723 17.2979 115.932 16.513 115.354 15.4917C114.775 14.4705 114.484 13.2825 114.484 11.9279C114.484 10.5733 114.766 9.38232 115.329 8.36106C115.893 7.33979 116.668 6.55187 117.659 5.99427C118.649 5.43969 119.761 5.16089 120.994 5.16089C122.396 5.16089 123.626 5.51242 124.683 6.21246C125.74 6.9125 126.492 7.88831 126.934 9.13686L123.987 10.3248C123.744 9.59446 123.354 9.04897 122.82 8.69138C122.287 8.33378 121.678 8.15499 120.994 8.15499C120.355 8.15499 119.785 8.31863 119.292 8.64592C118.798 8.97321 118.413 9.42172 118.137 9.99448C117.865 10.5672 117.725 11.2036 117.725 11.9037C117.725 12.6643 117.877 13.331 118.183 13.9038C118.489 14.4765 118.898 14.9129 119.416 15.219C119.934 15.5251 120.503 15.6766 121.13 15.6766C121.845 15.6766 122.484 15.4796 123.048 15.0826C123.611 14.6856 124.038 14.1068 124.326 13.3462L127.249 14.5341C126.807 15.813 126.037 16.8221 124.941 17.5615C123.844 18.301 122.566 18.6707 121.103 18.6707C119.855 18.6707 118.728 18.3949 117.722 17.8494L117.729 17.8464Z" fill="white"/>
<path d="M131.584 17.8131C130.588 17.2403 129.809 16.4463 129.255 15.4251C128.698 14.4038 128.422 13.2401 128.422 11.9279C128.422 10.6157 128.701 9.45202 129.255 8.43076C129.809 7.40949 130.588 6.60945 131.584 6.03063C132.581 5.45181 133.72 5.16089 134.998 5.16089C136.276 5.16089 137.415 5.45181 138.412 6.03063C139.408 6.60945 140.181 7.40949 140.729 8.43076C141.277 9.45202 141.553 10.6157 141.553 11.9279C141.553 13.2401 141.274 14.4038 140.72 15.4251C140.163 16.4463 139.39 17.2433 138.403 17.8131C137.412 18.3858 136.279 18.6707 134.998 18.6707C133.717 18.6707 132.581 18.3858 131.584 17.8131ZM136.725 15.1948C137.218 14.8735 137.603 14.4341 137.879 13.8704C138.154 13.3068 138.291 12.6583 138.291 11.9279C138.291 11.1976 138.154 10.546 137.879 9.97326C137.606 9.40051 137.215 8.95503 136.713 8.63683C136.21 8.31863 135.64 8.15802 134.998 8.15802C134.356 8.15802 133.786 8.31863 133.284 8.63683C132.781 8.95503 132.39 9.40354 132.108 9.97326C131.827 10.543 131.684 11.1945 131.684 11.9279C131.684 12.6613 131.821 13.3068 132.096 13.8704C132.369 14.4341 132.763 14.8766 133.271 15.1948C133.78 15.516 134.356 15.6736 134.995 15.6736C135.634 15.6736 136.225 15.5129 136.719 15.1948H136.725Z" fill="white"/>
<path d="M143.914 5.52757H147.022V7.5398H147.113C147.464 6.83977 147.946 6.26701 148.564 5.82456C149.182 5.38211 149.9 5.16089 150.723 5.16089C151.151 5.16089 151.559 5.23665 151.956 5.38817V8.90957C151.729 8.83381 151.472 8.7732 151.19 8.72774C150.908 8.68229 150.645 8.65804 150.402 8.65804C149.503 8.65804 148.806 8.89139 148.312 9.35505C147.819 9.82174 147.485 10.3763 147.319 11.0248C147.152 11.6734 147.067 12.4007 147.067 13.2068V18.2798H143.914V5.52757Z" fill="white"/>
<path d="M155.479 17.8009C154.604 17.2221 153.928 16.419 153.459 15.3887C152.986 14.3614 152.75 13.1977 152.75 11.9037C152.75 10.5339 153.004 9.33989 153.516 8.32771C154.025 7.31554 154.719 6.53368 155.594 5.98516C156.47 5.43665 157.442 5.16391 158.508 5.16391C159.393 5.16391 160.162 5.35483 160.816 5.73667C161.471 6.1185 161.998 6.62156 162.392 7.24584H162.437V0H165.59V14.3068C165.59 15.2826 165.624 16.0433 165.693 16.5918C165.763 17.1403 165.866 17.704 166.002 18.2828H162.873C162.873 18.2828 162.87 18.2525 162.861 18.2373C162.852 18.2222 162.849 18.201 162.849 18.1676C162.773 17.8646 162.716 17.5797 162.676 17.3221C162.637 17.0645 162.628 16.8342 162.643 16.6372H162.598C162.155 17.3221 161.577 17.8343 160.862 18.1676C160.147 18.504 159.369 18.6707 158.533 18.6707C157.375 18.6707 156.358 18.3798 155.482 17.8009H155.479ZM160.916 15.1614C161.41 14.8341 161.801 14.3886 162.083 13.825C162.364 13.2613 162.507 12.6128 162.507 11.8824C162.507 11.1521 162.364 10.5036 162.083 9.93992C161.801 9.37625 161.407 8.93683 160.907 8.6247C160.405 8.31256 159.841 8.15497 159.217 8.15497C158.593 8.15497 158.036 8.31559 157.548 8.63379C157.06 8.95502 156.679 9.39443 156.406 9.9581C156.133 10.5218 155.994 11.1703 155.994 11.9006C155.994 12.631 156.13 13.2583 156.406 13.8219C156.682 14.3856 157.06 14.8311 157.548 15.1584C158.036 15.4857 158.599 15.6493 159.238 15.6493C159.877 15.6493 160.423 15.4857 160.916 15.1584V15.1614Z" fill="white"/>
<path d="M70.7546 6.58524C70.579 6.47614 70.376 6.42462 70.1488 6.42462C69.9216 6.42462 69.7217 6.47917 69.543 6.58524C69.3643 6.69433 69.228 6.84282 69.128 7.03677C69.0281 7.23072 68.9766 7.44892 68.9766 7.69438C68.9766 7.93985 69.025 8.16108 69.122 8.34896C69.2189 8.53988 69.3582 8.68838 69.5369 8.79747C69.7157 8.90657 69.9186 8.95809 70.1458 8.95809C70.373 8.95809 70.579 8.90354 70.7546 8.79747C70.9303 8.69141 71.0666 8.53988 71.1636 8.34896C71.2605 8.15805 71.309 7.93985 71.309 7.69438C71.309 7.44892 71.2605 7.22769 71.1636 7.03677C71.0666 6.84282 70.9273 6.69433 70.7516 6.58524H70.7546Z" fill="white"/>
<path d="M75.6856 14.2038C75.5796 14.0735 75.4554 13.9765 75.313 13.9098C75.1676 13.8462 75.0101 13.8129 74.8344 13.8129C74.6375 13.8129 74.4679 13.8492 74.3195 13.925C74.171 14.0008 74.0469 14.1038 73.9499 14.2371C73.853 14.3705 73.7863 14.525 73.75 14.7008H75.8855C75.8613 14.5008 75.7946 14.3341 75.6886 14.2038H75.6856Z" fill="white"/>
<path d="M70.4373 2.25772C70.4373 2.25772 64.7668 -0.360603 59.8203 0.18791V19.798C59.8203 19.798 66.5479 19.8799 70.4373 21.7648C74.3297 19.8768 81.0573 19.798 81.0573 19.798V0.18791C76.1108 -0.360603 70.4373 2.25772 70.4373 2.25772ZM73.2483 5.53668H74.3054V6.2155H74.3357C74.4599 5.97912 74.6295 5.78517 74.8446 5.63668C75.0597 5.48819 75.3111 5.41243 75.5989 5.41243C75.7473 5.41243 75.8927 5.43667 76.029 5.48819V6.67613C75.9472 6.65189 75.8563 6.63067 75.7594 6.61552C75.6625 6.60037 75.5716 6.59128 75.4898 6.59128C75.1778 6.59128 74.9325 6.67007 74.7628 6.82765C74.5902 6.98524 74.4751 7.17313 74.4114 7.39435C74.3509 7.61557 74.3175 7.86104 74.3175 8.12772V9.83993H73.2452V5.53668H73.2483ZM67.0477 13.9765H65.8391V15.5887C65.8391 15.7675 65.8512 15.919 65.8724 16.0403C65.8936 16.1615 65.9512 16.2645 66.039 16.3524C66.1269 16.4403 66.2602 16.4827 66.4389 16.4827C66.6176 16.4827 66.8054 16.4372 67.0174 16.3433L67.0477 16.3281V17.2827C66.9387 17.3403 66.8175 17.3797 66.6782 17.407C66.5388 17.4312 66.3904 17.4464 66.2299 17.4464C65.7876 17.4464 65.4605 17.3615 65.2484 17.1888C65.0364 17.0161 64.9031 16.8282 64.8516 16.6221C64.8001 16.416 64.7759 16.1918 64.7759 15.9524V13.9795H63.8975V13.0159H64.7759V11.7976H65.8391V13.0159H67.0477V13.9795V13.9765ZM67.7232 4.55784C67.6263 4.51844 67.5354 4.48814 67.4536 4.46995C67.3718 4.45177 67.2931 4.44268 67.2143 4.44268C67.0235 4.44268 66.8811 4.47904 66.7842 4.55481C66.6873 4.63057 66.6267 4.71845 66.6024 4.82452C66.5782 4.93058 66.5691 5.05483 66.5691 5.19726V5.53668H67.6172V6.50036H66.5691V9.83993H65.4968V6.50036H64.8425V5.53668H65.4968V5.06695C65.5029 4.70633 65.5695 4.41541 65.6998 4.19115C65.83 3.9669 66.0057 3.80325 66.2238 3.69719C66.4419 3.59112 66.6964 3.5396 66.9841 3.5396C67.2719 3.5396 67.5172 3.58203 67.7232 3.66385V4.55784ZM71.8337 17.3161H70.7705V15.0735C70.7705 14.8432 70.7462 14.6432 70.6948 14.4765C70.6433 14.3099 70.5524 14.1735 70.4252 14.0644C70.2979 13.9553 70.1253 13.9038 69.9102 13.9038C69.7194 13.9038 69.5467 13.9462 69.3953 14.0341C69.2408 14.122 69.1196 14.2523 69.0318 14.4311C68.9439 14.6068 68.9015 14.8311 68.9015 15.0978V17.3191H67.8292V11.1521H68.9015V13.6583H68.9167C69.0772 13.4068 69.2741 13.2159 69.5104 13.0886C69.7466 12.9613 70.0071 12.8946 70.2889 12.8946C70.5706 12.8946 70.8311 12.9583 71.0643 13.0825C71.2975 13.2098 71.4853 13.4007 71.6277 13.6583C71.7701 13.9159 71.8398 14.2311 71.8398 14.6068V17.3221L71.8337 17.3161ZM72.1336 8.87321C71.9397 9.21869 71.6732 9.48537 71.3278 9.67932C70.9825 9.87327 70.5918 9.96721 70.1495 9.96721C69.7073 9.96721 69.3074 9.87024 68.9621 9.67932C68.6168 9.48537 68.3502 9.21869 68.1564 8.87321C67.9625 8.52774 67.8686 8.13681 67.8686 7.69436C67.8686 7.25192 67.9655 6.85796 68.1564 6.51551C68.3502 6.17004 68.6168 5.90033 68.9621 5.70638C69.3074 5.51243 69.7012 5.41243 70.1495 5.41243C70.5978 5.41243 70.9855 5.5094 71.3339 5.70638C71.6792 5.90033 71.9488 6.17307 72.1396 6.51551C72.3305 6.86099 72.4244 7.25192 72.4244 7.69436C72.4244 8.13681 72.3274 8.53077 72.1366 8.87321H72.1336ZM76.1925 17.0979C75.826 17.3282 75.3989 17.4434 74.9082 17.4434C74.472 17.4434 74.0813 17.3494 73.7329 17.1615C73.3876 16.9736 73.115 16.71 72.9151 16.3675C72.7182 16.0251 72.6182 15.6311 72.6182 15.1826C72.6182 14.7341 72.7121 14.3523 72.8999 14.0038C73.0877 13.6553 73.3513 13.3795 73.6905 13.1825C74.0298 12.9856 74.4084 12.8855 74.8325 12.8855C75.2081 12.8855 75.5595 12.9704 75.8836 13.1371C76.2077 13.3037 76.4712 13.5583 76.6651 13.9038C76.859 14.2493 76.9589 14.6735 76.9589 15.1766V15.4705H73.6905C73.7208 15.6857 73.7935 15.8706 73.9056 16.0221C74.0177 16.1736 74.16 16.2888 74.3327 16.3645C74.5054 16.4403 74.6932 16.4797 74.8991 16.4797C75.1354 16.4797 75.3474 16.4191 75.5352 16.3009C75.723 16.1827 75.8654 16.01 75.9623 15.7857L76.971 16.1948C76.8165 16.5645 76.556 16.8645 76.1895 17.0979H76.1925Z" fill="white"/>
</svg>
