<svg width="54" height="55" viewBox="0 0 54 55" fill="none" xmlns="http://www.w3.org/2000/svg">
<path d="M12.5733 23.9093H8.81312C8.08062 23.9093 7.54346 23.3219 7.54346 22.6365V18.8672" stroke="#4F387E" stroke-width="1.51152" stroke-linejoin="round"/>
<path d="M12.5733 9.22656H8.81312C8.08062 9.22656 7.54346 9.81399 7.54346 10.4993V14.2687" stroke="#4F387E" stroke-width="1.51152" stroke-linejoin="round"/>
<path d="M17.1152 23.9093H20.8754C21.6079 23.9093 22.1451 23.3219 22.1451 22.6365V18.8672" stroke="#4F387E" stroke-width="1.51152" stroke-linejoin="round"/>
<path d="M17.1152 9.22656H20.8754C21.6079 9.22656 22.1451 9.81399 22.1451 10.4993V14.2687" stroke="#4F387E" stroke-width="1.51152" stroke-linejoin="round"/>
<path d="M23.2182 15.3338L16.1049 8.20316C15.4184 7.51494 14.3053 7.51494 13.6187 8.20316L6.50547 15.3338C5.81893 16.022 5.81893 17.1378 6.50548 17.826L13.6187 24.9566C14.3053 25.6448 15.4184 25.6448 16.1049 24.9566L23.2182 17.826C23.9047 17.1378 23.9047 16.022 23.2182 15.3338Z" stroke="#4F387E" stroke-width="1.51152" stroke-linejoin="round"/>
<path d="M14.8687 48.9252C20.1008 48.9252 24.3423 44.6733 24.3423 39.4284C24.3423 34.1835 20.1008 29.9316 14.8687 29.9316C9.63652 29.9316 5.39502 34.1835 5.39502 39.4284C5.39502 44.6733 9.63652 48.9252 14.8687 48.9252Z" stroke="#4F387E" stroke-width="1.51152" stroke-linejoin="round"/>
<path d="M14.8686 43.297C16.9992 43.297 18.7264 41.5656 18.7264 39.4297C18.7264 37.2939 16.9992 35.5625 14.8686 35.5625C12.738 35.5625 11.0107 37.2939 11.0107 39.4297C11.0107 41.5656 12.738 43.297 14.8686 43.297Z" stroke="#4F387E" stroke-width="1.51152" stroke-linejoin="round"/>
<path d="M40.0665 48.2402H33.9135C31.716 48.2402 29.958 46.4779 29.958 44.2751V34.4846C29.958 32.2818 31.716 30.5195 33.9135 30.5195H43.6802C45.8777 30.5195 47.6357 32.2818 47.6357 34.4846V41.0442" stroke="#4F387E" stroke-width="1.51152" stroke-linejoin="round"/>
<path d="M47.9776 15.0011L39.8225 8.24565C39.1876 7.70718 38.3086 7.70718 37.6738 8.24565L29.5186 15.0011C28.4931 15.8822 28.4931 17.6935 29.5186 18.5257L37.6738 25.2811C38.3086 25.8196 39.1876 25.8196 39.8225 25.2811L47.9776 18.5257C49.0031 17.6445 49.0031 15.8333 47.9776 15.0011Z" stroke="#4F387E" stroke-width="1.51152" stroke-linejoin="round"/>
<path d="M47.9776 15.0011L39.8225 8.24565C39.1876 7.70718 38.3086 7.70718 37.6738 8.24565L29.5186 15.0011C28.4931 15.8822 28.4931 17.6935 29.5186 18.5257L37.6738 25.2811C38.3086 25.8196 39.1876 25.8196 39.8225 25.2811L47.9776 18.5257C49.0031 17.6445 49.0031 15.8333 47.9776 15.0011Z" stroke="#4F387E" stroke-width="1.51152" stroke-linejoin="round"/>
<path d="M40.0665 43.8841H36.3064C35.1832 43.8841 34.3042 43.0029 34.3042 41.877V36.9328C34.3042 35.8069 35.1832 34.9258 36.3064 34.9258H41.2385C42.3617 34.9258 43.2407 35.8069 43.2407 36.9328V41.0938" stroke="#4F387E" stroke-width="1.51152" stroke-linejoin="round"/>
<path d="M40.0664 48.2408V41.0938H47.5867L40.0664 48.2408Z" stroke="#4F387E" stroke-width="1.51152" stroke-linejoin="round"/>
<path d="M32.0093 20.3867H45.3408" stroke="#4F387E" stroke-width="1.51152" stroke-linecap="round" stroke-linejoin="round"/>
<path d="M32.0093 13.582H45.3408" stroke="#4F387E" stroke-width="1.51152" stroke-linecap="round" stroke-linejoin="round"/>
</svg>
