<svg width="978" height="340" viewBox="0 0 978 340" fill="none" xmlns="http://www.w3.org/2000/svg">
<g opacity="0.36">
<path d="M90.1004 84.7647C74.5004 84.7647 61.9004 71.5647 61.9004 51.7647C61.9004 30.7647 76.9004 8.26466 101.5 0.764648H112C93.4004 10.6646 88.0004 26.8647 88.0004 35.2647C88.6004 36.1647 88.0004 34.9647 88.0004 34.9647C104.8 34.0647 116.2 45.4647 116.2 60.1647C115.9 73.9647 104.2 84.7647 90.1004 84.7647ZM28.6004 84.7647C13.0004 84.7647 0.400391 71.5647 0.400391 51.7647C0.400391 30.7647 15.4004 8.26466 40.0004 0.764648H50.5004C31.9004 10.6646 26.5004 26.8647 26.5004 35.2647C27.1004 36.1647 26.5004 34.9647 26.5004 34.9647C43.3004 34.0647 54.7004 45.4647 54.7004 60.1647C54.4004 73.9647 42.7004 84.7647 28.6004 84.7647Z" fill="#CBBFE5"/>
<path d="M887.9 255.965C903.5 255.965 916.1 269.165 916.1 288.965C916.1 309.965 901.1 332.465 876.5 339.965H866C884.6 330.065 890 313.865 890 305.465C889.4 304.565 890 305.765 890 305.765C873.2 306.665 861.8 295.265 861.8 280.565C862.1 266.765 873.8 255.965 887.9 255.965ZM949.4 255.965C965 255.965 977.6 269.165 977.6 288.965C977.6 309.965 962.6 332.465 938 339.965H927.5C946.1 330.065 951.5 313.865 951.5 305.465C950.9 304.565 951.5 305.765 951.5 305.765C934.7 306.665 923.3 295.265 923.3 280.565C923.6 266.765 935.3 255.965 949.4 255.965Z" fill="#CBBFE5"/>
</g>
</svg>
