<svg width="332" height="521" viewBox="0 0 332 521" fill="none" xmlns="http://www.w3.org/2000/svg">
<g opacity="0.36">
<path d="M59.4818 56.2977C49.1371 56.2977 40.7818 47.5446 40.7818 34.4148C40.7818 20.4893 50.7286 5.56911 67.0414 0.595703H74.0041C61.6701 7.16058 58.0893 17.9031 58.0893 23.4733C58.4871 24.0701 58.0893 23.2744 58.0893 23.2744C69.2297 22.6776 76.7892 30.2371 76.7892 39.985C76.5903 49.136 68.8318 56.2977 59.4818 56.2977ZM18.7 56.2977C8.3553 56.2977 0 47.5446 0 34.4148C0 20.4893 9.94679 5.56911 26.2595 0.595703H33.2223C20.8883 7.16058 17.3074 17.9031 17.3074 23.4733C17.7053 24.0701 17.3074 23.2744 17.3074 23.2744C28.4478 22.6776 36.0074 30.2371 36.0074 39.985C35.8084 49.136 28.0499 56.2977 18.7 56.2977Z" fill="#CBBFE5"/>
<path d="M272.518 464.894C282.863 464.894 291.218 473.647 291.218 486.777C291.218 500.702 281.271 515.622 264.959 520.596H257.996C270.33 514.031 273.911 503.288 273.911 497.718C273.513 497.121 273.911 497.917 273.911 497.917C262.77 498.514 255.211 490.954 255.211 481.206C255.41 472.055 263.168 464.894 272.518 464.894ZM313.3 464.894C323.645 464.894 332 473.647 332 486.777C332 500.702 322.053 515.622 305.74 520.596H298.778C311.112 514.031 314.693 503.288 314.693 497.718C314.295 497.121 314.693 497.917 314.693 497.917C303.552 498.514 295.993 490.954 295.993 481.206C296.192 472.055 303.95 464.894 313.3 464.894Z" fill="#CBBFE5"/>
</g>
</svg>
